<svg width="342" height="414" viewBox="0 0 342 414" fill="none" xmlns="http://www.w3.org/2000/svg">
<rect x="0.25" y="0.25" width="341.5" height="413.5" rx="4.75" fill="#D4D4D8" stroke="#560090" stroke-width="0.5"/>
<path d="M31.1364 38.7841V34.7273H50.25V38.7841H43.125V58H38.2614V38.7841H31.1364ZM51.4943 58V40.5455H56.1875V43.5909H56.3693C56.6875 42.5076 57.2216 41.6894 57.9716 41.1364C58.7216 40.5758 59.5852 40.2955 60.5625 40.2955C60.8049 40.2955 61.0663 40.3106 61.3466 40.3409C61.6269 40.3712 61.8731 40.4129 62.0852 40.4659V44.7614C61.858 44.6932 61.5436 44.6326 61.142 44.5795C60.7405 44.5265 60.3731 44.5 60.0398 44.5C59.3277 44.5 58.6913 44.6553 58.1307 44.9659C57.5777 45.2689 57.1383 45.6932 56.8125 46.2386C56.4943 46.7841 56.3352 47.4129 56.3352 48.125V58H51.4943ZM71.7301 58.3409C69.9347 58.3409 68.3892 57.9773 67.0938 57.25C65.8059 56.5152 64.8134 55.4773 64.1165 54.1364C63.4195 52.7879 63.071 51.1932 63.071 49.3523C63.071 47.5568 63.4195 45.9811 64.1165 44.625C64.8134 43.2689 65.7945 42.2121 67.0597 41.4545C68.3324 40.697 69.8248 40.3182 71.5369 40.3182C72.6884 40.3182 73.7604 40.5038 74.7528 40.875C75.7528 41.2386 76.6241 41.7879 77.3665 42.5227C78.1165 43.2576 78.6998 44.1818 79.1165 45.2955C79.5331 46.4015 79.7415 47.697 79.7415 49.1818V50.5114H65.0028V47.5114H75.1847C75.1847 46.8144 75.0331 46.197 74.7301 45.6591C74.4271 45.1212 74.0066 44.7008 73.4688 44.3977C72.9384 44.0871 72.321 43.9318 71.6165 43.9318C70.8816 43.9318 70.2301 44.1023 69.6619 44.4432C69.1013 44.7765 68.6619 45.2273 68.3438 45.7955C68.0256 46.3561 67.8627 46.9811 67.8551 47.6705V50.5227C67.8551 51.3864 68.0142 52.1326 68.3324 52.7614C68.6581 53.3902 69.1165 53.875 69.7074 54.2159C70.2983 54.5568 70.9991 54.7273 71.8097 54.7273C72.3475 54.7273 72.84 54.6515 73.2869 54.5C73.7339 54.3485 74.1165 54.1212 74.4347 53.8182C74.7528 53.5152 74.9953 53.1439 75.1619 52.7045L79.6392 53C79.4119 54.0758 78.946 55.0152 78.2415 55.8182C77.5445 56.6136 76.643 57.2348 75.5369 57.6818C74.4384 58.1212 73.1695 58.3409 71.7301 58.3409ZM87.7415 47.9091V58H82.9006V40.5455H87.5142V43.625H87.7188C88.1051 42.6098 88.7528 41.8068 89.6619 41.2159C90.571 40.6174 91.6733 40.3182 92.9688 40.3182C94.1809 40.3182 95.2377 40.5833 96.1392 41.1136C97.0407 41.6439 97.7415 42.4015 98.2415 43.3864C98.7415 44.3636 98.9915 45.5303 98.9915 46.8864V58H94.1506V47.75C94.1581 46.6818 93.8854 45.8485 93.3324 45.25C92.7794 44.6439 92.018 44.3409 91.0483 44.3409C90.3968 44.3409 89.821 44.4811 89.321 44.7614C88.8286 45.0417 88.4422 45.4508 88.1619 45.9886C87.8892 46.5189 87.7491 47.1591 87.7415 47.9091ZM109.239 58.2841C107.913 58.2841 106.712 57.9432 105.636 57.2614C104.568 56.572 103.72 55.5606 103.091 54.2273C102.47 52.8864 102.159 51.2424 102.159 49.2955C102.159 47.2955 102.481 45.6326 103.125 44.3068C103.769 42.9735 104.625 41.9773 105.693 41.3182C106.769 40.6515 107.947 40.3182 109.227 40.3182C110.205 40.3182 111.019 40.4848 111.67 40.8182C112.33 41.1439 112.86 41.553 113.261 42.0455C113.67 42.5303 113.981 43.0076 114.193 43.4773H114.341V34.7273H119.17V58H114.398V55.2045H114.193C113.966 55.6894 113.644 56.1705 113.227 56.6477C112.818 57.1174 112.284 57.5076 111.625 57.8182C110.973 58.1288 110.178 58.2841 109.239 58.2841ZM110.773 54.4318C111.553 54.4318 112.212 54.2197 112.75 53.7955C113.295 53.3636 113.712 52.7614 114 51.9886C114.295 51.2159 114.443 50.3106 114.443 49.2727C114.443 48.2348 114.299 47.3333 114.011 46.5682C113.723 45.803 113.307 45.2121 112.761 44.7955C112.216 44.3788 111.553 44.1705 110.773 44.1705C109.977 44.1705 109.307 44.3864 108.761 44.8182C108.216 45.25 107.803 45.8485 107.523 46.6136C107.242 47.3788 107.102 48.2652 107.102 49.2727C107.102 50.2879 107.242 51.1856 107.523 51.9659C107.811 52.7386 108.223 53.3447 108.761 53.7841C109.307 54.2159 109.977 54.4318 110.773 54.4318ZM123.151 58V40.5455H127.991V58H123.151ZM125.582 38.2955C124.863 38.2955 124.245 38.0568 123.73 37.5795C123.223 37.0947 122.969 36.5152 122.969 35.8409C122.969 35.1742 123.223 34.6023 123.73 34.125C124.245 33.6402 124.863 33.3977 125.582 33.3977C126.302 33.3977 126.916 33.6402 127.423 34.125C127.938 34.6023 128.196 35.1742 128.196 35.8409C128.196 36.5152 127.938 37.0947 127.423 37.5795C126.916 38.0568 126.302 38.2955 125.582 38.2955ZM136.71 47.9091V58H131.869V40.5455H136.483V43.625H136.688C137.074 42.6098 137.722 41.8068 138.631 41.2159C139.54 40.6174 140.642 40.3182 141.938 40.3182C143.15 40.3182 144.206 40.5833 145.108 41.1136C146.009 41.6439 146.71 42.4015 147.21 43.3864C147.71 44.3636 147.96 45.5303 147.96 46.8864V58H143.119V47.75C143.127 46.6818 142.854 45.8485 142.301 45.25C141.748 44.6439 140.987 44.3409 140.017 44.3409C139.366 44.3409 138.79 44.4811 138.29 44.7614C137.797 45.0417 137.411 45.4508 137.131 45.9886C136.858 46.5189 136.718 47.1591 136.71 47.9091ZM159.639 64.9091C158.071 64.9091 156.726 64.6932 155.605 64.2614C154.491 63.8371 153.605 63.2576 152.946 62.5227C152.287 61.7879 151.859 60.9621 151.662 60.0455L156.139 59.4432C156.276 59.7917 156.491 60.1174 156.787 60.4205C157.082 60.7235 157.473 60.9659 157.957 61.1477C158.45 61.3371 159.048 61.4318 159.753 61.4318C160.806 61.4318 161.673 61.1742 162.355 60.6591C163.045 60.1515 163.389 59.2992 163.389 58.1023V54.9091H163.185C162.973 55.3939 162.654 55.8523 162.23 56.2841C161.806 56.7159 161.26 57.0682 160.594 57.3409C159.927 57.6136 159.132 57.75 158.207 57.75C156.897 57.75 155.704 57.447 154.628 56.8409C153.56 56.2273 152.707 55.2917 152.071 54.0341C151.442 52.7689 151.128 51.1705 151.128 49.2386C151.128 47.2614 151.45 45.6098 152.094 44.2841C152.738 42.9583 153.594 41.9659 154.662 41.3068C155.738 40.6477 156.916 40.3182 158.196 40.3182C159.173 40.3182 159.991 40.4848 160.651 40.8182C161.31 41.1439 161.84 41.553 162.241 42.0455C162.651 42.5303 162.965 43.0076 163.185 43.4773H163.366V40.5455H168.173V58.1705C168.173 59.6553 167.81 60.8977 167.082 61.8977C166.355 62.8977 165.348 63.6477 164.06 64.1477C162.779 64.6553 161.306 64.9091 159.639 64.9091ZM159.741 54.1136C160.522 54.1136 161.181 53.9205 161.719 53.5341C162.264 53.1402 162.681 52.5795 162.969 51.8523C163.264 51.1174 163.412 50.2386 163.412 49.2159C163.412 48.1932 163.268 47.3068 162.98 46.5568C162.692 45.7992 162.276 45.2121 161.73 44.7955C161.185 44.3788 160.522 44.1705 159.741 44.1705C158.946 44.1705 158.276 44.3864 157.73 44.8182C157.185 45.2424 156.772 45.8333 156.491 46.5909C156.211 47.3485 156.071 48.2235 156.071 49.2159C156.071 50.2235 156.211 51.0947 156.491 51.8295C156.779 52.5568 157.192 53.1212 157.73 53.5227C158.276 53.9167 158.946 54.1136 159.741 54.1136Z" fill="#09090B"/>
<path d="M36.7188 320L39.1051 305.455H41.3778L38.9915 320H36.7188ZM30.206 316.392L30.5824 314.119H41.946L41.5696 316.392H30.206ZM31.6051 320L33.9915 305.455H36.2642L33.8778 320H31.6051ZM31.0369 311.335L31.4205 309.062H42.7841L42.4006 311.335H31.0369ZM44.2525 320V305.455H54.0536V307.99H47.3278V311.456H53.5494V313.991H47.3278V317.464H54.082V320H44.2525ZM61.3707 320.213C60.2533 320.213 59.2921 319.976 58.4872 319.503C57.687 319.025 57.0715 318.362 56.6406 317.514C56.2145 316.667 56.0014 315.691 56.0014 314.588C56.0014 313.471 56.2169 312.491 56.6477 311.648C57.0833 310.8 57.7012 310.14 58.5014 309.666C59.3016 309.188 60.2533 308.949 61.3565 308.949C62.3082 308.949 63.1416 309.122 63.8565 309.467C64.5715 309.813 65.1373 310.298 65.554 310.923C65.9706 311.548 66.2003 312.282 66.2429 313.125H63.3878C63.3073 312.58 63.0942 312.143 62.7486 311.811C62.4077 311.475 61.9602 311.307 61.4062 311.307C60.9375 311.307 60.5279 311.435 60.1776 311.69C59.8319 311.941 59.562 312.308 59.3679 312.791C59.1738 313.274 59.0767 313.859 59.0767 314.545C59.0767 315.241 59.1714 315.833 59.3608 316.321C59.5549 316.809 59.8272 317.18 60.1776 317.436C60.5279 317.692 60.9375 317.82 61.4062 317.82C61.7519 317.82 62.062 317.749 62.3366 317.607C62.616 317.464 62.8456 317.259 63.0256 316.989C63.2102 316.714 63.331 316.385 63.3878 316.001H66.2429C66.1955 316.835 65.9683 317.569 65.5611 318.203C65.1586 318.833 64.6023 319.325 63.892 319.68C63.1818 320.036 62.3414 320.213 61.3707 320.213ZM71.2056 313.693V320H68.18V305.455H71.1204V311.016H71.2482C71.4944 310.372 71.8922 309.867 72.4414 309.503C72.9906 309.134 73.6796 308.949 74.5082 308.949C75.2657 308.949 75.9263 309.115 76.4897 309.446C77.0579 309.773 77.4982 310.244 77.8107 310.859C78.128 311.47 78.2842 312.202 78.2795 313.054V320H75.2539V313.594C75.2586 312.921 75.0882 312.398 74.7425 312.024C74.4016 311.65 73.9234 311.463 73.3079 311.463C72.896 311.463 72.5314 311.551 72.2141 311.726C71.9016 311.901 71.6554 312.157 71.4755 312.493C71.3003 312.824 71.2103 313.224 71.2056 313.693ZM85.5895 320.213C84.4863 320.213 83.5322 319.979 82.7273 319.51C81.9271 319.036 81.3092 318.378 80.8736 317.536C80.438 316.688 80.2202 315.705 80.2202 314.588C80.2202 313.461 80.438 312.476 80.8736 311.634C81.3092 310.786 81.9271 310.128 82.7273 309.659C83.5322 309.186 84.4863 308.949 85.5895 308.949C86.6927 308.949 87.6444 309.186 88.4446 309.659C89.2495 310.128 89.8698 310.786 90.3054 311.634C90.741 312.476 90.9588 313.461 90.9588 314.588C90.9588 315.705 90.741 316.688 90.3054 317.536C89.8698 318.378 89.2495 319.036 88.4446 319.51C87.6444 319.979 86.6927 320.213 85.5895 320.213ZM85.6037 317.869C86.1056 317.869 86.5246 317.727 86.8608 317.443C87.197 317.154 87.4503 316.761 87.6207 316.264C87.7959 315.767 87.8835 315.201 87.8835 314.567C87.8835 313.932 87.7959 313.366 87.6207 312.869C87.4503 312.372 87.197 311.979 86.8608 311.69C86.5246 311.402 86.1056 311.257 85.6037 311.257C85.0971 311.257 84.6709 311.402 84.3253 311.69C83.9844 311.979 83.7263 312.372 83.5511 312.869C83.3807 313.366 83.2955 313.932 83.2955 314.567C83.2955 315.201 83.3807 315.767 83.5511 316.264C83.7263 316.761 83.9844 317.154 84.3253 317.443C84.6709 317.727 85.0971 317.869 85.6037 317.869ZM97.8977 320.213C96.7756 320.213 95.8097 319.986 95 319.531C94.1951 319.072 93.5748 318.423 93.1392 317.585C92.7036 316.742 92.4858 315.746 92.4858 314.595C92.4858 313.473 92.7036 312.488 93.1392 311.641C93.5748 310.793 94.188 310.133 94.9787 309.659C95.7741 309.186 96.7069 308.949 97.777 308.949C98.4967 308.949 99.1667 309.065 99.7869 309.297C100.412 309.524 100.956 309.867 101.42 310.327C101.889 310.786 102.254 311.364 102.514 312.06C102.775 312.751 102.905 313.561 102.905 314.489V315.32H93.6932V313.445H100.057C100.057 313.009 99.9621 312.623 99.7727 312.287C99.5833 311.951 99.3205 311.688 98.9844 311.499C98.6529 311.304 98.267 311.207 97.8267 311.207C97.3674 311.207 96.9602 311.314 96.6051 311.527C96.2547 311.735 95.9801 312.017 95.7812 312.372C95.5824 312.723 95.4806 313.113 95.4759 313.544V315.327C95.4759 315.866 95.5753 316.333 95.7741 316.726C95.9777 317.119 96.2642 317.422 96.6335 317.635C97.0028 317.848 97.4408 317.955 97.9474 317.955C98.2836 317.955 98.5914 317.907 98.8707 317.812C99.1501 317.718 99.3892 317.576 99.5881 317.386C99.7869 317.197 99.9384 316.965 100.043 316.69L102.841 316.875C102.699 317.547 102.408 318.134 101.967 318.636C101.532 319.134 100.968 319.522 100.277 319.801C99.5904 320.076 98.7973 320.213 97.8977 320.213ZM108.899 320.178C108.071 320.178 107.32 319.964 106.648 319.538C105.98 319.107 105.45 318.475 105.057 317.642C104.669 316.804 104.474 315.777 104.474 314.56C104.474 313.31 104.676 312.27 105.078 311.442C105.481 310.608 106.016 309.986 106.683 309.574C107.356 309.157 108.092 308.949 108.892 308.949C109.503 308.949 110.012 309.053 110.419 309.261C110.831 309.465 111.162 309.721 111.413 310.028C111.669 310.331 111.863 310.63 111.996 310.923H112.088V305.455H115.107V320H112.124V318.253H111.996C111.854 318.556 111.652 318.857 111.392 319.155C111.136 319.448 110.803 319.692 110.391 319.886C109.983 320.08 109.486 320.178 108.899 320.178ZM109.858 317.77C110.346 317.77 110.758 317.637 111.094 317.372C111.435 317.102 111.695 316.726 111.875 316.243C112.06 315.76 112.152 315.194 112.152 314.545C112.152 313.897 112.062 313.333 111.882 312.855C111.702 312.377 111.442 312.008 111.101 311.747C110.76 311.487 110.346 311.357 109.858 311.357C109.361 311.357 108.942 311.491 108.601 311.761C108.26 312.031 108.002 312.405 107.827 312.884C107.652 313.362 107.564 313.916 107.564 314.545C107.564 315.18 107.652 315.741 107.827 316.229C108.007 316.712 108.265 317.09 108.601 317.365C108.942 317.635 109.361 317.77 109.858 317.77Z" fill="#09090B"/>
<path d="M33.054 330.727V338H32.3899V331.423H32.3473L30.6428 332.556V331.867L32.3615 330.727H33.054ZM35.419 330.727H36.1861L38.8246 337.062H38.8885L41.527 330.727H42.294V338H41.669V332.13H41.6122L39.1584 338H38.5547L36.1009 332.13H36.044V338H35.419V330.727ZM46.9087 340.045V332.545H47.5231V333.586H47.5977C47.6734 333.423 47.7776 333.256 47.9102 333.085C48.0427 332.912 48.2179 332.767 48.4357 332.648C48.6559 332.53 48.9329 332.471 49.2667 332.471C49.7165 332.471 50.1095 332.589 50.4457 332.826C50.7842 333.06 51.047 333.389 51.234 333.813C51.4234 334.235 51.5181 334.726 51.5181 335.287C51.5181 335.85 51.4234 336.344 51.234 336.768C51.047 337.192 50.7842 337.522 50.4457 337.759C50.1095 337.995 49.7189 338.114 49.2738 338.114C48.9447 338.114 48.6689 338.054 48.4464 337.936C48.2262 337.818 48.0475 337.672 47.9102 337.499C47.7752 337.324 47.671 337.154 47.5977 336.988H47.5408V340.045H46.9087ZM47.5337 335.276C47.5337 335.717 47.5988 336.107 47.729 336.448C47.8616 336.787 48.051 337.053 48.2972 337.247C48.5458 337.439 48.8465 337.535 49.1992 337.535C49.5614 337.535 49.8668 337.435 50.1154 337.237C50.3664 337.035 50.5569 336.764 50.6871 336.423C50.8197 336.082 50.886 335.7 50.886 335.276C50.886 334.857 50.8209 334.48 50.6907 334.143C50.5629 333.807 50.3735 333.541 50.1225 333.344C49.8716 333.146 49.5638 333.046 49.1992 333.046C48.8441 333.046 48.5423 333.142 48.2937 333.334C48.0451 333.523 47.8557 333.786 47.7255 334.122C47.5977 334.456 47.5337 334.841 47.5337 335.276ZM55.0249 338.114C54.5537 338.114 54.1371 337.994 53.7749 337.755C53.415 337.516 53.1333 337.186 52.9297 336.764C52.7261 336.34 52.6243 335.852 52.6243 335.298C52.6243 334.739 52.7261 334.248 52.9297 333.824C53.1333 333.398 53.415 333.066 53.7749 332.83C54.1371 332.59 54.5537 332.471 55.0249 332.471C55.496 332.471 55.9115 332.59 56.2713 332.83C56.6312 333.069 56.9129 333.4 57.1165 333.824C57.3224 334.248 57.4254 334.739 57.4254 335.298C57.4254 335.852 57.3236 336.34 57.12 336.764C56.9164 337.186 56.6335 337.516 56.2713 337.755C55.9115 337.994 55.496 338.114 55.0249 338.114ZM55.0249 337.535C55.4036 337.535 55.7244 337.433 55.9872 337.229C56.25 337.026 56.4489 336.755 56.5838 336.416C56.7211 336.078 56.7898 335.705 56.7898 335.298C56.7898 334.89 56.7211 334.516 56.5838 334.175C56.4489 333.835 56.25 333.561 55.9872 333.355C55.7244 333.149 55.4036 333.046 55.0249 333.046C54.6484 333.046 54.3277 333.149 54.0625 333.355C53.7997 333.561 53.5997 333.835 53.4624 334.175C53.3274 334.516 53.2599 334.89 53.2599 335.298C53.2599 335.705 53.3274 336.078 53.4624 336.416C53.5997 336.755 53.7997 337.026 54.0625 337.229C54.3253 337.433 54.6461 337.535 55.0249 337.535ZM62.4778 333.742L61.899 333.906C61.8422 333.742 61.7617 333.594 61.6575 333.462C61.5533 333.329 61.4172 333.224 61.2491 333.146C61.0834 333.067 60.8774 333.028 60.6312 333.028C60.2619 333.028 59.9589 333.116 59.7221 333.291C59.4854 333.466 59.367 333.692 59.367 333.969C59.367 334.204 59.4475 334.394 59.6085 334.541C59.7718 334.686 60.0228 334.8 60.3613 334.886L61.1852 335.088C61.6421 335.199 61.9842 335.376 62.2115 335.617C62.4411 335.859 62.5559 336.162 62.5559 336.526C62.5559 336.834 62.4707 337.107 62.3002 337.347C62.1298 337.586 61.8919 337.774 61.5865 337.911C61.2834 338.046 60.9319 338.114 60.5318 338.114C59.9991 338.114 59.56 337.994 59.2143 337.755C58.8687 337.513 58.6473 337.165 58.5502 336.711L59.1575 336.562C59.2356 336.886 59.3883 337.131 59.6156 337.297C59.8452 337.463 60.1471 337.545 60.5211 337.545C60.9402 337.545 61.2752 337.452 61.5261 337.265C61.777 337.076 61.9025 336.839 61.9025 336.555C61.9025 336.335 61.8291 336.15 61.6824 336.001C61.5356 335.849 61.313 335.738 61.0147 335.667L60.1234 335.454C59.6499 335.34 59.2995 335.16 59.0723 334.914C58.845 334.668 58.7314 334.362 58.7314 333.998C58.7314 333.697 58.813 333.433 58.9764 333.206C59.1397 332.976 59.3646 332.796 59.6511 332.666C59.9376 332.536 60.2643 332.471 60.6312 332.471C61.1307 332.471 61.5297 332.585 61.8279 332.812C62.1286 333.037 62.3452 333.347 62.4778 333.742ZM66.0884 332.545V333.096H63.4854V332.545H66.0884ZM64.2987 331.239H64.9343V336.576C64.9343 336.803 64.9734 336.982 65.0515 337.112C65.1296 337.24 65.2314 337.331 65.3569 337.386C65.4824 337.438 65.6161 337.464 65.7582 337.464C65.841 337.464 65.9121 337.459 65.9712 337.45C66.0304 337.438 66.0825 337.426 66.1275 337.414L66.2624 337.986C66.2009 338.009 66.1251 338.031 66.0352 338.05C65.9452 338.071 65.8339 338.082 65.7013 338.082C65.4693 338.082 65.2456 338.031 65.0302 337.929C64.8171 337.827 64.6419 337.676 64.5046 337.474C64.3673 337.273 64.2987 337.023 64.2987 336.725V331.239ZM71.0911 333.742L70.5123 333.906C70.4554 333.742 70.3749 333.594 70.2708 333.462C70.1666 333.329 70.0305 333.224 69.8624 333.146C69.6967 333.067 69.4907 333.028 69.2445 333.028C68.8752 333.028 68.5721 333.116 68.3354 333.291C68.0987 333.466 67.9803 333.692 67.9803 333.969C67.9803 334.204 68.0608 334.394 68.2218 334.541C68.3851 334.686 68.6361 334.8 68.9746 334.886L69.7985 335.088C70.2554 335.199 70.5975 335.376 70.8248 335.617C71.0544 335.859 71.1692 336.162 71.1692 336.526C71.1692 336.834 71.084 337.107 70.9135 337.347C70.7431 337.586 70.5051 337.774 70.1998 337.911C69.8967 338.046 69.5452 338.114 69.1451 338.114C68.6124 338.114 68.1732 337.994 67.8276 337.755C67.4819 337.513 67.2606 337.165 67.1635 336.711L67.7708 336.562C67.8489 336.886 68.0016 337.131 68.2289 337.297C68.4585 337.463 68.7604 337.545 69.1344 337.545C69.5534 337.545 69.8884 337.452 70.1394 337.265C70.3903 337.076 70.5158 336.839 70.5158 336.555C70.5158 336.335 70.4424 336.15 70.2956 336.001C70.1489 335.849 69.9263 335.738 69.628 335.667L68.7367 335.454C68.2632 335.34 67.9128 335.16 67.6855 334.914C67.4583 334.668 67.3446 334.362 67.3446 333.998C67.3446 333.697 67.4263 333.433 67.5897 333.206C67.753 332.976 67.9779 332.796 68.2644 332.666C68.5508 332.536 68.8775 332.471 69.2445 332.471C69.744 332.471 70.1429 332.585 70.4412 332.812C70.7419 333.037 70.9585 333.347 71.0911 333.742Z" fill="#27272A"/>
<path d="M36.7188 188L39.1051 173.455H41.3778L38.9915 188H36.7188ZM30.206 184.392L30.5824 182.119H41.946L41.5696 184.392H30.206ZM31.6051 188L33.9915 173.455H36.2642L33.8778 188H31.6051ZM31.0369 179.335L31.4205 177.062H42.7841L42.4006 179.335H31.0369ZM50.0763 173.455H53.1161V183.597C53.1161 184.534 52.9054 185.348 52.484 186.04C52.0674 186.731 51.4873 187.264 50.744 187.638C50.0006 188.012 49.1365 188.199 48.1516 188.199C47.2757 188.199 46.4802 188.045 45.7653 187.737C45.055 187.425 44.4916 186.951 44.0749 186.317C43.6583 185.678 43.4523 184.875 43.457 183.909H46.5181C46.5276 184.293 46.6057 184.622 46.7525 184.896C46.904 185.166 47.11 185.375 47.3704 185.521C47.6355 185.663 47.948 185.734 48.3079 185.734C48.6867 185.734 49.0063 185.654 49.2667 185.493C49.5318 185.327 49.7331 185.086 49.8704 184.768C50.0077 184.451 50.0763 184.061 50.0763 183.597V173.455ZM60.5309 188.213C59.4277 188.213 58.4736 187.979 57.6687 187.51C56.8685 187.036 56.2506 186.378 55.815 185.536C55.3794 184.688 55.1616 183.705 55.1616 182.588C55.1616 181.461 55.3794 180.476 55.815 179.634C56.2506 178.786 56.8685 178.128 57.6687 177.659C58.4736 177.186 59.4277 176.949 60.5309 176.949C61.6341 176.949 62.5858 177.186 63.386 177.659C64.1909 178.128 64.8112 178.786 65.2468 179.634C65.6824 180.476 65.9002 181.461 65.9002 182.588C65.9002 183.705 65.6824 184.688 65.2468 185.536C64.8112 186.378 64.1909 187.036 63.386 187.51C62.5858 187.979 61.6341 188.213 60.5309 188.213ZM60.5451 185.869C61.047 185.869 61.466 185.727 61.8022 185.443C62.1384 185.154 62.3917 184.761 62.5621 184.264C62.7373 183.767 62.8249 183.201 62.8249 182.567C62.8249 181.932 62.7373 181.366 62.5621 180.869C62.3917 180.372 62.1384 179.979 61.8022 179.69C61.466 179.402 61.047 179.257 60.5451 179.257C60.0385 179.257 59.6123 179.402 59.2667 179.69C58.9258 179.979 58.6677 180.372 58.4925 180.869C58.3221 181.366 58.2369 181.932 58.2369 182.567C58.2369 183.201 58.3221 183.767 58.4925 184.264C58.6677 184.761 58.9258 185.154 59.2667 185.443C59.6123 185.727 60.0385 185.869 60.5451 185.869ZM67.8675 188V177.091H70.8931V188H67.8675ZM69.3874 175.685C68.9376 175.685 68.5517 175.536 68.2298 175.237C67.9125 174.934 67.7539 174.572 67.7539 174.151C67.7539 173.734 67.9125 173.376 68.2298 173.078C68.5517 172.775 68.9376 172.624 69.3874 172.624C69.8372 172.624 70.2208 172.775 70.538 173.078C70.86 173.376 71.021 173.734 71.021 174.151C71.021 174.572 70.86 174.934 70.538 175.237C70.2208 175.536 69.8372 175.685 69.3874 175.685ZM76.3423 181.693V188H73.3168V177.091H76.2003V179.016H76.3281C76.5696 178.381 76.9744 177.879 77.5426 177.51C78.1108 177.136 78.7997 176.949 79.6094 176.949C80.367 176.949 81.0275 177.115 81.5909 177.446C82.1544 177.777 82.5923 178.251 82.9048 178.866C83.2173 179.477 83.3736 180.206 83.3736 181.054V188H80.348V181.594C80.3527 180.926 80.1823 180.405 79.8366 180.031C79.491 179.652 79.0152 179.463 78.4091 179.463C78.0019 179.463 77.642 179.551 77.3295 179.726C77.0218 179.901 76.7803 180.157 76.6051 180.493C76.4347 180.824 76.3471 181.224 76.3423 181.693ZM84.343 175.99V173.455H96.2891V175.99H91.8359V188H88.7962V175.99H84.343ZM101.225 181.693V188H98.1996V173.455H101.14V179.016H101.268C101.514 178.372 101.912 177.867 102.461 177.503C103.01 177.134 103.699 176.949 104.528 176.949C105.285 176.949 105.946 177.115 106.509 177.446C107.077 177.773 107.518 178.244 107.83 178.859C108.147 179.47 108.304 180.202 108.299 181.054V188H105.273V181.594C105.278 180.921 105.108 180.398 104.762 180.024C104.421 179.65 103.943 179.463 103.327 179.463C102.915 179.463 102.551 179.551 102.234 179.726C101.921 179.901 101.675 180.157 101.495 180.493C101.32 180.824 101.23 181.224 101.225 181.693ZM115.652 188.213C114.529 188.213 113.564 187.986 112.754 187.531C111.949 187.072 111.329 186.423 110.893 185.585C110.458 184.742 110.24 183.746 110.24 182.595C110.24 181.473 110.458 180.488 110.893 179.641C111.329 178.793 111.942 178.133 112.733 177.659C113.528 177.186 114.461 176.949 115.531 176.949C116.251 176.949 116.921 177.065 117.541 177.297C118.166 177.524 118.71 177.867 119.174 178.327C119.643 178.786 120.008 179.364 120.268 180.06C120.529 180.751 120.659 181.561 120.659 182.489V183.32H111.447V181.445H117.811C117.811 181.009 117.716 180.623 117.527 180.287C117.337 179.951 117.074 179.688 116.738 179.499C116.407 179.304 116.021 179.207 115.581 179.207C115.121 179.207 114.714 179.314 114.359 179.527C114.009 179.735 113.734 180.017 113.535 180.372C113.336 180.723 113.234 181.113 113.23 181.544V183.327C113.23 183.866 113.329 184.333 113.528 184.726C113.732 185.119 114.018 185.422 114.387 185.635C114.757 185.848 115.195 185.955 115.701 185.955C116.038 185.955 116.345 185.907 116.625 185.812C116.904 185.718 117.143 185.576 117.342 185.386C117.541 185.197 117.692 184.965 117.797 184.69L120.595 184.875C120.453 185.547 120.162 186.134 119.721 186.636C119.286 187.134 118.722 187.522 118.031 187.801C117.344 188.076 116.551 188.213 115.652 188.213ZM135.524 178.547H132.413C132.356 178.144 132.24 177.787 132.065 177.474C131.89 177.157 131.665 176.887 131.39 176.665C131.116 176.442 130.798 176.272 130.439 176.153C130.083 176.035 129.698 175.976 129.281 175.976C128.528 175.976 127.872 176.163 127.314 176.537C126.755 176.906 126.322 177.446 126.014 178.156C125.706 178.862 125.552 179.719 125.552 180.727C125.552 181.764 125.706 182.635 126.014 183.341C126.326 184.046 126.762 184.579 127.321 184.939C127.879 185.299 128.526 185.479 129.26 185.479C129.672 185.479 130.053 185.424 130.403 185.315C130.758 185.206 131.073 185.048 131.348 184.839C131.622 184.626 131.85 184.368 132.029 184.065C132.214 183.762 132.342 183.417 132.413 183.028L135.524 183.043C135.443 183.71 135.242 184.354 134.92 184.974C134.603 185.59 134.174 186.142 133.635 186.629C133.1 187.112 132.46 187.496 131.717 187.78C130.978 188.059 130.143 188.199 129.21 188.199C127.913 188.199 126.752 187.905 125.73 187.318C124.712 186.731 123.907 185.881 123.315 184.768C122.728 183.656 122.434 182.309 122.434 180.727C122.434 179.141 122.733 177.792 123.329 176.679C123.926 175.566 124.735 174.719 125.758 174.136C126.781 173.549 127.931 173.256 129.21 173.256C130.053 173.256 130.834 173.374 131.554 173.611C132.278 173.848 132.92 174.193 133.478 174.648C134.037 175.098 134.492 175.649 134.842 176.303C135.197 176.956 135.424 177.704 135.524 178.547ZM142.601 188.213C141.498 188.213 140.544 187.979 139.739 187.51C138.939 187.036 138.321 186.378 137.885 185.536C137.45 184.688 137.232 183.705 137.232 182.588C137.232 181.461 137.45 180.476 137.885 179.634C138.321 178.786 138.939 178.128 139.739 177.659C140.544 177.186 141.498 176.949 142.601 176.949C143.704 176.949 144.656 177.186 145.456 177.659C146.261 178.128 146.882 178.786 147.317 179.634C147.753 180.476 147.971 181.461 147.971 182.588C147.971 183.705 147.753 184.688 147.317 185.536C146.882 186.378 146.261 187.036 145.456 187.51C144.656 187.979 143.704 188.213 142.601 188.213ZM142.615 185.869C143.117 185.869 143.536 185.727 143.873 185.443C144.209 185.154 144.462 184.761 144.632 184.264C144.808 183.767 144.895 183.201 144.895 182.567C144.895 181.932 144.808 181.366 144.632 180.869C144.462 180.372 144.209 179.979 143.873 179.69C143.536 179.402 143.117 179.257 142.615 179.257C142.109 179.257 141.683 179.402 141.337 179.69C140.996 179.979 140.738 180.372 140.563 180.869C140.392 181.366 140.307 181.932 140.307 182.567C140.307 183.201 140.392 183.767 140.563 184.264C140.738 184.761 140.996 185.154 141.337 185.443C141.683 185.727 142.109 185.869 142.615 185.869ZM152.963 181.693V188H149.938V177.091H152.821V179.016H152.949C153.191 178.381 153.596 177.879 154.164 177.51C154.732 177.136 155.421 176.949 156.23 176.949C156.988 176.949 157.649 177.115 158.212 177.446C158.775 177.777 159.213 178.251 159.526 178.866C159.838 179.477 159.995 180.206 159.995 181.054V188H156.969V181.594C156.974 180.926 156.803 180.405 156.458 180.031C156.112 179.652 155.636 179.463 155.03 179.463C154.623 179.463 154.263 179.551 153.951 179.726C153.643 179.901 153.401 180.157 153.226 180.493C153.056 180.824 152.968 181.224 152.963 181.693ZM172.159 177.091L168.345 188H164.936L161.122 177.091H164.318L166.584 184.896H166.697L168.956 177.091H172.159ZM178.327 188.213C177.205 188.213 176.239 187.986 175.43 187.531C174.625 187.072 174.004 186.423 173.569 185.585C173.133 184.742 172.915 183.746 172.915 182.595C172.915 181.473 173.133 180.488 173.569 179.641C174.004 178.793 174.618 178.133 175.408 177.659C176.204 177.186 177.137 176.949 178.207 176.949C178.926 176.949 179.596 177.065 180.217 177.297C180.842 177.524 181.386 177.867 181.85 178.327C182.319 178.786 182.683 179.364 182.944 180.06C183.204 180.751 183.335 181.561 183.335 182.489V183.32H174.123V181.445H180.487C180.487 181.009 180.392 180.623 180.202 180.287C180.013 179.951 179.75 179.688 179.414 179.499C179.083 179.304 178.697 179.207 178.256 179.207C177.797 179.207 177.39 179.314 177.035 179.527C176.684 179.735 176.41 180.017 176.211 180.372C176.012 180.723 175.91 181.113 175.906 181.544V183.327C175.906 183.866 176.005 184.333 176.204 184.726C176.407 185.119 176.694 185.422 177.063 185.635C177.433 185.848 177.871 185.955 178.377 185.955C178.713 185.955 179.021 185.907 179.3 185.812C179.58 185.718 179.819 185.576 180.018 185.386C180.217 185.197 180.368 184.965 180.472 184.69L183.271 184.875C183.129 185.547 182.837 186.134 182.397 186.636C181.961 187.134 181.398 187.522 180.707 187.801C180.02 188.076 179.227 188.213 178.327 188.213ZM185.309 188V177.091H188.242V178.994H188.356C188.555 178.317 188.888 177.806 189.357 177.46C189.826 177.11 190.366 176.935 190.977 176.935C191.128 176.935 191.291 176.944 191.467 176.963C191.642 176.982 191.796 177.008 191.928 177.041V179.726C191.786 179.683 191.59 179.645 191.339 179.612C191.088 179.579 190.858 179.562 190.65 179.562C190.205 179.562 189.807 179.66 189.457 179.854C189.111 180.043 188.836 180.308 188.633 180.649C188.434 180.99 188.335 181.383 188.335 181.828V188H185.309ZM202.569 180.202L199.799 180.372C199.752 180.135 199.65 179.922 199.494 179.733C199.338 179.539 199.132 179.385 198.876 179.271C198.625 179.153 198.324 179.094 197.974 179.094C197.505 179.094 197.11 179.193 196.788 179.392C196.466 179.586 196.305 179.847 196.305 180.173C196.305 180.434 196.409 180.654 196.618 180.834C196.826 181.014 197.183 181.158 197.69 181.267L199.664 181.665C200.725 181.883 201.516 182.233 202.037 182.716C202.557 183.199 202.818 183.833 202.818 184.619C202.818 185.334 202.607 185.962 202.186 186.501C201.769 187.041 201.196 187.463 200.467 187.766C199.743 188.064 198.907 188.213 197.96 188.213C196.516 188.213 195.365 187.912 194.508 187.311C193.656 186.705 193.156 185.881 193.01 184.839L195.985 184.683C196.075 185.124 196.293 185.46 196.639 185.692C196.984 185.919 197.427 186.033 197.967 186.033C198.497 186.033 198.923 185.931 199.245 185.727C199.572 185.519 199.738 185.251 199.743 184.925C199.738 184.65 199.622 184.425 199.395 184.25C199.167 184.07 198.817 183.933 198.343 183.838L196.454 183.462C195.389 183.249 194.596 182.879 194.075 182.354C193.559 181.828 193.301 181.158 193.301 180.344C193.301 179.643 193.49 179.039 193.869 178.533C194.252 178.026 194.79 177.635 195.481 177.361C196.177 177.086 196.992 176.949 197.924 176.949C199.302 176.949 200.386 177.24 201.177 177.822C201.973 178.405 202.437 179.198 202.569 180.202ZM207.834 188.206C207.138 188.206 206.518 188.085 205.973 187.844C205.429 187.598 204.998 187.235 204.68 186.757C204.368 186.274 204.212 185.673 204.212 184.953C204.212 184.347 204.323 183.838 204.545 183.426C204.768 183.014 205.071 182.683 205.455 182.432C205.838 182.181 206.274 181.991 206.761 181.864C207.254 181.736 207.77 181.646 208.31 181.594C208.944 181.527 209.455 181.466 209.844 181.409C210.232 181.348 210.514 181.258 210.689 181.139C210.864 181.021 210.952 180.846 210.952 180.614V180.571C210.952 180.121 210.81 179.773 210.526 179.527C210.246 179.281 209.848 179.158 209.332 179.158C208.788 179.158 208.355 179.278 208.033 179.52C207.711 179.757 207.498 180.055 207.393 180.415L204.595 180.188C204.737 179.525 205.017 178.952 205.433 178.469C205.85 177.981 206.387 177.607 207.045 177.347C207.708 177.081 208.475 176.949 209.347 176.949C209.953 176.949 210.533 177.02 211.087 177.162C211.645 177.304 212.14 177.524 212.571 177.822C213.007 178.121 213.35 178.504 213.601 178.973C213.852 179.437 213.977 179.993 213.977 180.642V188H211.108V186.487H211.023C210.848 186.828 210.613 187.129 210.32 187.389C210.026 187.645 209.673 187.846 209.261 187.993C208.849 188.135 208.374 188.206 207.834 188.206ZM208.7 186.118C209.145 186.118 209.538 186.03 209.879 185.855C210.22 185.675 210.488 185.434 210.682 185.131C210.876 184.828 210.973 184.484 210.973 184.101V182.943C210.878 183.005 210.748 183.062 210.582 183.114C210.421 183.161 210.239 183.206 210.036 183.249C209.832 183.286 209.628 183.322 209.425 183.355C209.221 183.384 209.036 183.41 208.871 183.433C208.516 183.485 208.205 183.568 207.94 183.682C207.675 183.795 207.469 183.949 207.322 184.143C207.176 184.333 207.102 184.57 207.102 184.854C207.102 185.266 207.251 185.58 207.55 185.798C207.853 186.011 208.236 186.118 208.7 186.118ZM222.127 177.091V179.364H215.558V177.091H222.127ZM217.049 174.477H220.075V184.648C220.075 184.927 220.117 185.145 220.202 185.301C220.288 185.453 220.406 185.559 220.558 185.621C220.714 185.682 220.894 185.713 221.097 185.713C221.239 185.713 221.381 185.701 221.523 185.678C221.665 185.649 221.774 185.628 221.85 185.614L222.326 187.865C222.174 187.912 221.961 187.967 221.687 188.028C221.412 188.095 221.078 188.135 220.685 188.149C219.956 188.178 219.317 188.08 218.768 187.858C218.223 187.635 217.799 187.29 217.496 186.821C217.193 186.352 217.044 185.76 217.049 185.045V174.477ZM224.098 188V177.091H227.124V188H224.098ZM225.618 175.685C225.168 175.685 224.782 175.536 224.46 175.237C224.143 174.934 223.984 174.572 223.984 174.151C223.984 173.734 224.143 173.376 224.46 173.078C224.782 172.775 225.168 172.624 225.618 172.624C226.068 172.624 226.451 172.775 226.768 173.078C227.09 173.376 227.251 173.734 227.251 174.151C227.251 174.572 227.09 174.934 226.768 175.237C226.451 175.536 226.068 175.685 225.618 175.685ZM234.476 188.213C233.373 188.213 232.419 187.979 231.614 187.51C230.814 187.036 230.196 186.378 229.76 185.536C229.325 184.688 229.107 183.705 229.107 182.588C229.107 181.461 229.325 180.476 229.76 179.634C230.196 178.786 230.814 178.128 231.614 177.659C232.419 177.186 233.373 176.949 234.476 176.949C235.579 176.949 236.531 177.186 237.331 177.659C238.136 178.128 238.757 178.786 239.192 179.634C239.628 180.476 239.846 181.461 239.846 182.588C239.846 183.705 239.628 184.688 239.192 185.536C238.757 186.378 238.136 187.036 237.331 187.51C236.531 187.979 235.579 188.213 234.476 188.213ZM234.49 185.869C234.992 185.869 235.411 185.727 235.748 185.443C236.084 185.154 236.337 184.761 236.507 184.264C236.683 183.767 236.77 183.201 236.77 182.567C236.77 181.932 236.683 181.366 236.507 180.869C236.337 180.372 236.084 179.979 235.748 179.69C235.411 179.402 234.992 179.257 234.49 179.257C233.984 179.257 233.558 179.402 233.212 179.69C232.871 179.979 232.613 180.372 232.438 180.869C232.267 181.366 232.182 181.932 232.182 182.567C232.182 183.201 232.267 183.767 232.438 184.264C232.613 184.761 232.871 185.154 233.212 185.443C233.558 185.727 233.984 185.869 234.49 185.869ZM244.838 181.693V188H241.813V177.091H244.696V179.016H244.824C245.066 178.381 245.471 177.879 246.039 177.51C246.607 177.136 247.296 176.949 248.105 176.949C248.863 176.949 249.524 177.115 250.087 177.446C250.65 177.777 251.088 178.251 251.401 178.866C251.713 179.477 251.87 180.206 251.87 181.054V188H248.844V181.594C248.849 180.926 248.678 180.405 248.333 180.031C247.987 179.652 247.511 179.463 246.905 179.463C246.498 179.463 246.138 179.551 245.826 179.726C245.518 179.901 245.276 180.157 245.101 180.493C244.931 180.824 244.843 181.224 244.838 181.693Z" fill="#09090B"/>
<path d="M30.8097 204V203.513L33.1854 200.843C33.4955 200.493 33.7453 200.193 33.9347 199.945C34.1241 199.696 34.2614 199.466 34.3466 199.256C34.4342 199.045 34.478 198.826 34.478 198.599C34.478 198.322 34.4129 198.08 34.2827 197.874C34.1548 197.666 33.9785 197.504 33.7536 197.388C33.5286 197.272 33.2753 197.214 32.9936 197.214C32.6953 197.214 32.4337 197.278 32.2088 197.406C31.9863 197.533 31.8134 197.709 31.6903 197.931C31.5672 198.154 31.5057 198.409 31.5057 198.698H30.87C30.87 198.296 30.9624 197.939 31.147 197.629C31.334 197.317 31.5885 197.072 31.9105 196.894C32.2348 196.717 32.6018 196.628 33.0114 196.628C33.4162 196.628 33.776 196.715 34.0909 196.891C34.4058 197.063 34.6532 197.299 34.8331 197.597C35.013 197.896 35.103 198.229 35.103 198.599C35.103 198.866 35.0556 199.125 34.9609 199.376C34.8686 199.627 34.7088 199.907 34.4815 200.214C34.2543 200.522 33.9394 200.899 33.5369 201.344L31.733 203.357V203.403H35.3303V204H30.8097ZM37.0694 196.727H37.8365L40.475 203.062H40.5389L43.1774 196.727H43.9444V204H43.3194V198.13H43.2626L40.8088 204H40.2051L37.7512 198.13H37.6944V204H37.0694V196.727ZM48.5591 206.045V198.545H49.1735V199.586H49.248C49.3238 199.423 49.428 199.256 49.5605 199.085C49.6931 198.912 49.8683 198.767 50.0861 198.648C50.3063 198.53 50.5833 198.471 50.9171 198.471C51.3669 198.471 51.7599 198.589 52.0961 198.826C52.4346 199.06 52.6974 199.389 52.8844 199.813C53.0738 200.235 53.1685 200.726 53.1685 201.287C53.1685 201.85 53.0738 202.344 52.8844 202.768C52.6974 203.192 52.4346 203.522 52.0961 203.759C51.7599 203.995 51.3693 204.114 50.9242 204.114C50.5951 204.114 50.3193 204.054 50.0968 203.936C49.8766 203.818 49.6979 203.672 49.5605 203.499C49.4256 203.324 49.3214 203.154 49.248 202.988H49.1912V206.045H48.5591ZM49.1841 201.276C49.1841 201.717 49.2492 202.107 49.3794 202.448C49.512 202.787 49.7014 203.053 49.9476 203.247C50.1962 203.439 50.4969 203.535 50.8496 203.535C51.2118 203.535 51.5172 203.435 51.7658 203.237C52.0167 203.035 52.2073 202.764 52.3375 202.423C52.4701 202.082 52.5364 201.7 52.5364 201.276C52.5364 200.857 52.4713 200.48 52.3411 200.143C52.2132 199.807 52.0239 199.541 51.7729 199.344C51.522 199.146 51.2142 199.046 50.8496 199.046C50.4945 199.046 50.1926 199.142 49.9441 199.334C49.6955 199.523 49.5061 199.786 49.3759 200.122C49.248 200.456 49.1841 200.841 49.1841 201.276ZM56.6752 204.114C56.2041 204.114 55.7875 203.994 55.4252 203.755C55.0654 203.516 54.7837 203.186 54.5801 202.764C54.3765 202.34 54.2747 201.852 54.2747 201.298C54.2747 200.739 54.3765 200.248 54.5801 199.824C54.7837 199.398 55.0654 199.066 55.4252 198.83C55.7875 198.59 56.2041 198.471 56.6752 198.471C57.1464 198.471 57.5618 198.59 57.9217 198.83C58.2815 199.069 58.5633 199.4 58.7669 199.824C58.9728 200.248 59.0758 200.739 59.0758 201.298C59.0758 201.852 58.974 202.34 58.7704 202.764C58.5668 203.186 58.2839 203.516 57.9217 203.755C57.5618 203.994 57.1464 204.114 56.6752 204.114ZM56.6752 203.535C57.054 203.535 57.3748 203.433 57.6376 203.229C57.9004 203.026 58.0993 202.755 58.2342 202.416C58.3715 202.078 58.4402 201.705 58.4402 201.298C58.4402 200.89 58.3715 200.516 58.2342 200.175C58.0993 199.835 57.9004 199.561 57.6376 199.355C57.3748 199.149 57.054 199.046 56.6752 199.046C56.2988 199.046 55.978 199.149 55.7129 199.355C55.4501 199.561 55.2501 199.835 55.1127 200.175C54.9778 200.516 54.9103 200.89 54.9103 201.298C54.9103 201.705 54.9778 202.078 55.1127 202.416C55.2501 202.755 55.4501 203.026 55.7129 203.229C55.9757 203.433 56.2965 203.535 56.6752 203.535ZM64.1282 199.742L63.5494 199.906C63.4925 199.742 63.4121 199.594 63.3079 199.462C63.2037 199.329 63.0676 199.224 62.8995 199.146C62.7338 199.067 62.5278 199.028 62.2816 199.028C61.9123 199.028 61.6093 199.116 61.3725 199.291C61.1358 199.466 61.0174 199.692 61.0174 199.969C61.0174 200.204 61.0979 200.394 61.2589 200.541C61.4222 200.686 61.6732 200.8 62.0117 200.886L62.8356 201.088C63.2925 201.199 63.6346 201.376 63.8619 201.617C64.0915 201.859 64.2063 202.162 64.2063 202.526C64.2063 202.834 64.1211 203.107 63.9506 203.347C63.7802 203.586 63.5423 203.774 63.2369 203.911C62.9338 204.046 62.5823 204.114 62.1822 204.114C61.6495 204.114 61.2103 203.994 60.8647 203.755C60.5191 203.513 60.2977 203.165 60.2006 202.711L60.8079 202.562C60.886 202.886 61.0387 203.131 61.266 203.297C61.4956 203.463 61.7975 203.545 62.1715 203.545C62.5906 203.545 62.9255 203.452 63.1765 203.265C63.4274 203.076 63.5529 202.839 63.5529 202.555C63.5529 202.335 63.4795 202.15 63.3327 202.001C63.186 201.849 62.9634 201.738 62.6651 201.667L61.7738 201.454C61.3003 201.34 60.9499 201.16 60.7227 200.914C60.4954 200.668 60.3817 200.362 60.3817 199.998C60.3817 199.697 60.4634 199.433 60.6268 199.206C60.7901 198.976 61.015 198.796 61.3015 198.666C61.5879 198.536 61.9147 198.471 62.2816 198.471C62.7811 198.471 63.18 198.585 63.4783 198.812C63.779 199.037 63.9956 199.347 64.1282 199.742ZM67.7388 198.545V199.096H65.1358V198.545H67.7388ZM65.949 197.239H66.5847V202.576C66.5847 202.803 66.6238 202.982 66.7019 203.112C66.78 203.24 66.8818 203.331 67.0073 203.386C67.1328 203.438 67.2665 203.464 67.4086 203.464C67.4914 203.464 67.5624 203.459 67.6216 203.45C67.6808 203.438 67.7329 203.426 67.7779 203.414L67.9128 203.986C67.8513 204.009 67.7755 204.031 67.6855 204.05C67.5956 204.071 67.4843 204.082 67.3517 204.082C67.1197 204.082 66.896 204.031 66.6806 203.929C66.4675 203.827 66.2923 203.676 66.155 203.474C66.0177 203.273 65.949 203.023 65.949 202.725V197.239ZM72.7415 199.742L72.1626 199.906C72.1058 199.742 72.0253 199.594 71.9212 199.462C71.817 199.329 71.6809 199.224 71.5128 199.146C71.3471 199.067 71.1411 199.028 70.8949 199.028C70.5256 199.028 70.2225 199.116 69.9858 199.291C69.7491 199.466 69.6307 199.692 69.6307 199.969C69.6307 200.204 69.7112 200.394 69.8722 200.541C70.0355 200.686 70.2865 200.8 70.625 200.886L71.4489 201.088C71.9058 201.199 72.2479 201.376 72.4751 201.617C72.7048 201.859 72.8196 202.162 72.8196 202.526C72.8196 202.834 72.7344 203.107 72.5639 203.347C72.3935 203.586 72.1555 203.774 71.8501 203.911C71.5471 204.046 71.1955 204.114 70.7955 204.114C70.2628 204.114 69.8236 203.994 69.478 203.755C69.1323 203.513 68.911 203.165 68.8139 202.711L69.4212 202.562C69.4993 202.886 69.652 203.131 69.8793 203.297C70.1089 203.463 70.4107 203.545 70.7848 203.545C71.2038 203.545 71.5388 203.452 71.7898 203.265C72.0407 203.076 72.1662 202.839 72.1662 202.555C72.1662 202.335 72.0928 202.15 71.946 202.001C71.7992 201.849 71.5767 201.738 71.2784 201.667L70.3871 201.454C69.9136 201.34 69.5632 201.16 69.3359 200.914C69.1087 200.668 68.995 200.362 68.995 199.998C68.995 199.697 69.0767 199.433 69.2401 199.206C69.4034 198.976 69.6283 198.796 69.9148 198.666C70.2012 198.536 70.5279 198.471 70.8949 198.471C71.3944 198.471 71.7933 198.585 72.0916 198.812C72.3923 199.037 72.6089 199.347 72.7415 199.742Z" fill="#27272A"/>
<path d="M36.7188 254L39.1051 239.455H41.3778L38.9915 254H36.7188ZM30.206 250.392L30.5824 248.119H41.946L41.5696 250.392H30.206ZM31.6051 254L33.9915 239.455H36.2642L33.8778 254H31.6051ZM31.0369 245.335L31.4205 243.062H42.7841L42.4006 245.335H31.0369ZM53.8974 244.156C53.7979 243.811 53.6583 243.505 53.4783 243.24C53.2984 242.97 53.0782 242.743 52.8178 242.558C52.5621 242.369 52.2686 242.224 51.9371 242.125C51.6104 242.026 51.2482 241.976 50.8505 241.976C50.1071 241.976 49.4537 242.161 48.8903 242.53C48.3316 242.899 47.896 243.437 47.5835 244.142C47.271 244.843 47.1147 245.7 47.1147 246.713C47.1147 247.726 47.2686 248.588 47.5763 249.298C47.8841 250.009 48.3197 250.551 48.8832 250.925C49.4466 251.294 50.1119 251.479 50.8789 251.479C51.5749 251.479 52.1692 251.356 52.6616 251.109C53.1587 250.858 53.5375 250.506 53.7979 250.051C54.0631 249.597 54.1957 249.059 54.1957 248.439L54.8207 248.531H51.0707V246.216H57.1573V248.048C57.1573 249.327 56.8874 250.425 56.3477 251.344C55.8079 252.258 55.0645 252.963 54.1175 253.46C53.1706 253.953 52.0863 254.199 50.8647 254.199C49.5011 254.199 48.3031 253.898 47.271 253.297C46.2388 252.691 45.4338 251.831 44.8562 250.719C44.2833 249.601 43.9968 248.276 43.9968 246.741C43.9968 245.562 44.1673 244.511 44.5082 243.588C44.8538 242.66 45.3368 241.874 45.957 241.23C46.5773 240.586 47.2994 240.096 48.1232 239.76C48.9471 239.424 49.8396 239.256 50.8008 239.256C51.6246 239.256 52.3917 239.376 53.1019 239.618C53.8121 239.855 54.4419 240.191 54.9911 240.626C55.5451 241.062 55.9973 241.58 56.3477 242.182C56.698 242.778 56.9229 243.437 57.0224 244.156H53.8974ZM62.5213 254.206C61.8253 254.206 61.205 254.085 60.6605 253.844C60.116 253.598 59.6851 253.235 59.3679 252.757C59.0554 252.274 58.8991 251.673 58.8991 250.953C58.8991 250.347 59.0104 249.838 59.233 249.426C59.4555 249.014 59.7585 248.683 60.142 248.432C60.5256 248.181 60.9612 247.991 61.4489 247.864C61.9413 247.736 62.4574 247.646 62.9972 247.594C63.6316 247.527 64.143 247.466 64.5312 247.409C64.9195 247.348 65.2012 247.258 65.3764 247.139C65.5516 247.021 65.6392 246.846 65.6392 246.614V246.571C65.6392 246.121 65.4972 245.773 65.2131 245.527C64.9337 245.281 64.536 245.158 64.0199 245.158C63.4754 245.158 63.0421 245.278 62.7202 245.52C62.3982 245.757 62.1851 246.055 62.081 246.415L59.2827 246.188C59.4247 245.525 59.7041 244.952 60.1207 244.469C60.5374 243.981 61.0748 243.607 61.733 243.347C62.3958 243.081 63.1629 242.949 64.0341 242.949C64.6402 242.949 65.2202 243.02 65.7741 243.162C66.3329 243.304 66.8277 243.524 67.2585 243.822C67.6941 244.121 68.0374 244.504 68.2884 244.973C68.5393 245.437 68.6648 245.993 68.6648 246.642V254H65.7955V252.487H65.7102C65.535 252.828 65.3007 253.129 65.0071 253.389C64.7135 253.645 64.3608 253.846 63.9489 253.993C63.5369 254.135 63.0611 254.206 62.5213 254.206ZM63.3878 252.118C63.8329 252.118 64.2259 252.03 64.5668 251.855C64.9077 251.675 65.1752 251.434 65.3693 251.131C65.5634 250.828 65.6605 250.484 65.6605 250.101V248.943C65.5658 249.005 65.4356 249.062 65.2699 249.114C65.1089 249.161 64.9266 249.206 64.723 249.249C64.5194 249.286 64.3158 249.322 64.1122 249.355C63.9086 249.384 63.724 249.41 63.5582 249.433C63.2031 249.485 62.893 249.568 62.6278 249.682C62.3627 249.795 62.1567 249.949 62.0099 250.143C61.8632 250.333 61.7898 250.57 61.7898 250.854C61.7898 251.266 61.9389 251.58 62.2372 251.798C62.5402 252.011 62.9238 252.118 63.3878 252.118ZM71.0121 254V243.091H73.8956V245.016H74.0234C74.2507 244.376 74.6295 243.872 75.1598 243.503C75.6901 243.134 76.3246 242.949 77.0632 242.949C77.8113 242.949 78.4482 243.136 78.9737 243.51C79.4993 243.879 79.8497 244.381 80.0249 245.016H80.1385C80.361 244.391 80.7635 243.891 81.3459 243.517C81.933 243.138 82.6267 242.949 83.4268 242.949C84.4448 242.949 85.2711 243.273 85.9055 243.922C86.5447 244.566 86.8643 245.48 86.8643 246.663V254H83.8459V247.26C83.8459 246.654 83.6849 246.199 83.3629 245.896C83.041 245.593 82.6385 245.442 82.1555 245.442C81.6063 245.442 81.1778 245.617 80.87 245.967C80.5623 246.313 80.4084 246.77 80.4084 247.338V254H77.4751V247.196C77.4751 246.661 77.3213 246.235 77.0135 245.918C76.7105 245.6 76.3104 245.442 75.8132 245.442C75.477 245.442 75.174 245.527 74.9041 245.697C74.639 245.863 74.4283 246.098 74.272 246.401C74.1158 246.699 74.0376 247.049 74.0376 247.452V254H71.0121ZM89.2543 254V243.091H92.2798V254H89.2543ZM90.7741 241.685C90.3243 241.685 89.9384 241.536 89.6165 241.237C89.2992 240.934 89.1406 240.572 89.1406 240.151C89.1406 239.734 89.2992 239.376 89.6165 239.078C89.9384 238.775 90.3243 238.624 90.7741 238.624C91.224 238.624 91.6075 238.775 91.9247 239.078C92.2467 239.376 92.4077 239.734 92.4077 240.151C92.4077 240.572 92.2467 240.934 91.9247 241.237C91.6075 241.536 91.224 241.685 90.7741 241.685ZM97.729 247.693V254H94.7035V243.091H97.587V245.016H97.7148C97.9563 244.381 98.3612 243.879 98.9293 243.51C99.4975 243.136 100.186 242.949 100.996 242.949C101.754 242.949 102.414 243.115 102.978 243.446C103.541 243.777 103.979 244.251 104.292 244.866C104.604 245.477 104.76 246.206 104.76 247.054V254H101.735V247.594C101.739 246.926 101.569 246.405 101.223 246.031C100.878 245.652 100.402 245.463 99.7958 245.463C99.3886 245.463 99.0288 245.551 98.7163 245.726C98.4085 245.901 98.167 246.157 97.9918 246.493C97.8214 246.824 97.7338 247.224 97.729 247.693ZM112.06 258.318C111.08 258.318 110.239 258.183 109.538 257.913C108.842 257.648 108.288 257.286 107.876 256.827C107.464 256.367 107.197 255.851 107.074 255.278L109.872 254.902C109.957 255.12 110.092 255.323 110.277 255.513C110.462 255.702 110.705 255.854 111.009 255.967C111.316 256.086 111.69 256.145 112.131 256.145C112.789 256.145 113.331 255.984 113.757 255.662C114.188 255.345 114.403 254.812 114.403 254.064V252.068H114.276C114.143 252.371 113.944 252.658 113.679 252.928C113.414 253.197 113.073 253.418 112.656 253.588C112.24 253.759 111.742 253.844 111.165 253.844C110.346 253.844 109.6 253.654 108.928 253.276C108.26 252.892 107.727 252.307 107.33 251.521C106.937 250.731 106.74 249.732 106.74 248.524C106.74 247.288 106.941 246.256 107.344 245.428C107.746 244.599 108.281 243.979 108.949 243.567C109.621 243.155 110.357 242.949 111.158 242.949C111.768 242.949 112.28 243.053 112.692 243.261C113.104 243.465 113.435 243.721 113.686 244.028C113.942 244.331 114.138 244.63 114.276 244.923H114.389V243.091H117.393V254.107C117.393 255.035 117.166 255.811 116.712 256.436C116.257 257.061 115.627 257.53 114.822 257.842C114.022 258.16 113.101 258.318 112.06 258.318ZM112.124 251.571C112.611 251.571 113.023 251.45 113.359 251.209C113.7 250.963 113.961 250.612 114.141 250.158C114.325 249.698 114.418 249.149 114.418 248.51C114.418 247.871 114.328 247.317 114.148 246.848C113.968 246.375 113.707 246.008 113.366 245.747C113.026 245.487 112.611 245.357 112.124 245.357C111.626 245.357 111.207 245.491 110.866 245.761C110.526 246.027 110.268 246.396 110.092 246.869C109.917 247.343 109.83 247.89 109.83 248.51C109.83 249.14 109.917 249.684 110.092 250.143C110.272 250.598 110.53 250.951 110.866 251.202C111.207 251.448 111.626 251.571 112.124 251.571Z" fill="#09090B"/>
<path d="M33.1712 270.099C32.7237 270.099 32.3236 270.019 31.9709 269.858C31.6181 269.695 31.3388 269.469 31.1328 269.18C30.9268 268.891 30.8179 268.558 30.8061 268.182H31.4773C31.4891 268.447 31.5708 268.679 31.7223 268.878C31.8738 269.074 32.075 269.228 32.326 269.339C32.5769 269.448 32.8563 269.503 33.1641 269.503C33.5002 269.503 33.7962 269.44 34.0518 269.315C34.3099 269.189 34.5111 269.018 34.6555 268.8C34.8023 268.58 34.8757 268.331 34.8757 268.054C34.8757 267.76 34.8011 267.501 34.652 267.276C34.5028 267.051 34.2886 266.876 34.0092 266.751C33.7322 266.625 33.4008 266.562 33.0149 266.562H32.5888V265.966H33.0149C33.3298 265.966 33.608 265.909 33.8494 265.795C34.0933 265.679 34.285 265.517 34.4247 265.309C34.5644 265.101 34.6342 264.856 34.6342 264.574C34.6342 264.306 34.5739 264.071 34.4531 263.867C34.3324 263.664 34.1619 263.504 33.9418 263.388C33.724 263.272 33.4695 263.214 33.1783 263.214C32.8965 263.214 32.6385 263.268 32.4041 263.377C32.1697 263.486 31.9804 263.64 31.8359 263.839C31.6939 264.038 31.6181 264.273 31.6087 264.545H30.9659C30.9754 264.167 31.0795 263.834 31.2784 263.548C31.4796 263.259 31.746 263.034 32.0774 262.873C32.4112 262.71 32.7805 262.628 33.1854 262.628C33.6139 262.628 33.9844 262.715 34.2969 262.891C34.6094 263.066 34.8509 263.299 35.0213 263.59C35.1941 263.879 35.2805 264.197 35.2805 264.545C35.2805 264.96 35.1681 265.315 34.9432 265.611C34.7183 265.904 34.4152 266.108 34.0341 266.222V266.268C34.4981 266.36 34.8627 266.566 35.1278 266.886C35.3954 267.203 35.5291 267.592 35.5291 268.054C35.5291 268.442 35.4273 268.791 35.2237 269.102C35.0201 269.409 34.7408 269.653 34.3857 269.833C34.0329 270.011 33.6281 270.099 33.1712 270.099ZM37.255 262.727H38.022L40.6605 269.062H40.7244L43.3629 262.727H44.13V270H43.505V264.13H43.4482L40.9943 270H40.3906L37.9368 264.13H37.88V270H37.255V262.727ZM48.7447 272.045V264.545H49.359V265.586H49.4336C49.5094 265.423 49.6135 265.256 49.7461 265.085C49.8787 264.912 50.0539 264.767 50.2717 264.648C50.4918 264.53 50.7688 264.471 51.1026 264.471C51.5524 264.471 51.9454 264.589 52.2816 264.826C52.6201 265.06 52.8829 265.389 53.07 265.813C53.2594 266.235 53.354 266.726 53.354 267.287C53.354 267.85 53.2594 268.344 53.07 268.768C52.8829 269.192 52.6201 269.522 52.2816 269.759C51.9454 269.995 51.5548 270.114 51.1097 270.114C50.7807 270.114 50.5049 270.054 50.2823 269.936C50.0621 269.818 49.8834 269.672 49.7461 269.499C49.6112 269.324 49.507 269.154 49.4336 268.988H49.3768V272.045H48.7447ZM49.3697 267.276C49.3697 267.717 49.4348 268.107 49.565 268.448C49.6976 268.787 49.887 269.053 50.1332 269.247C50.3817 269.439 50.6824 269.535 51.0352 269.535C51.3974 269.535 51.7028 269.435 51.9513 269.237C52.2023 269.035 52.3929 268.764 52.5231 268.423C52.6557 268.082 52.7219 267.7 52.7219 267.276C52.7219 266.857 52.6568 266.48 52.5266 266.143C52.3988 265.807 52.2094 265.541 51.9585 265.344C51.7075 265.146 51.3997 265.046 51.0352 265.046C50.68 265.046 50.3782 265.142 50.1296 265.334C49.881 265.523 49.6916 265.786 49.5614 266.122C49.4336 266.456 49.3697 266.841 49.3697 267.276ZM56.8608 270.114C56.3897 270.114 55.973 269.994 55.6108 269.755C55.2509 269.516 54.9692 269.186 54.7656 268.764C54.562 268.34 54.4602 267.852 54.4602 267.298C54.4602 266.739 54.562 266.248 54.7656 265.824C54.9692 265.398 55.2509 265.066 55.6108 264.83C55.973 264.59 56.3897 264.471 56.8608 264.471C57.3319 264.471 57.7474 264.59 58.1072 264.83C58.4671 265.069 58.7488 265.4 58.9524 265.824C59.1584 266.248 59.2614 266.739 59.2614 267.298C59.2614 267.852 59.1596 268.34 58.956 268.764C58.7524 269.186 58.4695 269.516 58.1072 269.755C57.7474 269.994 57.3319 270.114 56.8608 270.114ZM56.8608 269.535C57.2396 269.535 57.5604 269.433 57.8232 269.229C58.0859 269.026 58.2848 268.755 58.4197 268.416C58.5571 268.078 58.6257 267.705 58.6257 267.298C58.6257 266.89 58.5571 266.516 58.4197 266.175C58.2848 265.835 58.0859 265.561 57.8232 265.355C57.5604 265.149 57.2396 265.046 56.8608 265.046C56.4844 265.046 56.1636 265.149 55.8984 265.355C55.6357 265.561 55.4356 265.835 55.2983 266.175C55.1634 266.516 55.0959 266.89 55.0959 267.298C55.0959 267.705 55.1634 268.078 55.2983 268.416C55.4356 268.755 55.6357 269.026 55.8984 269.229C56.1612 269.433 56.482 269.535 56.8608 269.535ZM64.3137 265.742L63.7349 265.906C63.6781 265.742 63.5976 265.594 63.4934 265.462C63.3893 265.329 63.2531 265.224 63.085 265.146C62.9193 265.067 62.7134 265.028 62.4672 265.028C62.0978 265.028 61.7948 265.116 61.5581 265.291C61.3213 265.466 61.2029 265.692 61.2029 265.969C61.2029 266.204 61.2834 266.394 61.4444 266.541C61.6078 266.686 61.8587 266.8 62.1973 266.886L63.0211 267.088C63.478 267.199 63.8201 267.376 64.0474 267.617C64.277 267.859 64.3919 268.162 64.3919 268.526C64.3919 268.834 64.3066 269.107 64.1362 269.347C63.9657 269.586 63.7278 269.774 63.4224 269.911C63.1194 270.046 62.7678 270.114 62.3677 270.114C61.835 270.114 61.3959 269.994 61.0502 269.755C60.7046 269.513 60.4833 269.165 60.3862 268.711L60.9934 268.562C61.0716 268.886 61.2243 269.131 61.4515 269.297C61.6812 269.463 61.983 269.545 62.3571 269.545C62.7761 269.545 63.1111 269.452 63.362 269.265C63.613 269.076 63.7385 268.839 63.7385 268.555C63.7385 268.335 63.6651 268.15 63.5183 268.001C63.3715 267.849 63.149 267.738 62.8507 267.667L61.9593 267.454C61.4859 267.34 61.1355 267.16 60.9082 266.914C60.6809 266.668 60.5673 266.362 60.5673 265.998C60.5673 265.697 60.649 265.433 60.8123 265.206C60.9757 264.976 61.2006 264.796 61.487 264.666C61.7735 264.536 62.1002 264.471 62.4672 264.471C62.9667 264.471 63.3656 264.585 63.6639 264.812C63.9645 265.037 64.1812 265.347 64.3137 265.742ZM67.9244 264.545V265.096H65.3214V264.545H67.9244ZM66.1346 263.239H66.7702V268.576C66.7702 268.803 66.8093 268.982 66.8874 269.112C66.9656 269.24 67.0674 269.331 67.1928 269.386C67.3183 269.438 67.4521 269.464 67.5941 269.464C67.677 269.464 67.748 269.459 67.8072 269.45C67.8664 269.438 67.9184 269.426 67.9634 269.414L68.0984 269.986C68.0368 270.009 67.9611 270.031 67.8711 270.05C67.7811 270.071 67.6699 270.082 67.5373 270.082C67.3053 270.082 67.0816 270.031 66.8661 269.929C66.6531 269.827 66.4779 269.676 66.3406 269.474C66.2032 269.273 66.1346 269.023 66.1346 268.725V263.239ZM72.927 265.742L72.3482 265.906C72.2914 265.742 72.2109 265.594 72.1067 265.462C72.0025 265.329 71.8664 265.224 71.6983 265.146C71.5326 265.067 71.3266 265.028 71.0804 265.028C70.7111 265.028 70.4081 265.116 70.1713 265.291C69.9346 265.466 69.8162 265.692 69.8162 265.969C69.8162 266.204 69.8967 266.394 70.0577 266.541C70.2211 266.686 70.472 266.8 70.8105 266.886L71.6344 267.088C72.0913 267.199 72.4334 267.376 72.6607 267.617C72.8903 267.859 73.0051 268.162 73.0051 268.526C73.0051 268.834 72.9199 269.107 72.7495 269.347C72.579 269.586 72.3411 269.774 72.0357 269.911C71.7327 270.046 71.3811 270.114 70.981 270.114C70.4483 270.114 70.0092 269.994 69.6635 269.755C69.3179 269.513 69.0965 269.165 68.9995 268.711L69.6067 268.562C69.6848 268.886 69.8375 269.131 70.0648 269.297C70.2944 269.463 70.5963 269.545 70.9703 269.545C71.3894 269.545 71.7244 269.452 71.9753 269.265C72.2263 269.076 72.3517 268.839 72.3517 268.555C72.3517 268.335 72.2784 268.15 72.1316 268.001C71.9848 267.849 71.7623 267.738 71.464 267.667L70.5726 267.454C70.0991 267.34 69.7488 267.16 69.5215 266.914C69.2942 266.668 69.1806 266.362 69.1806 265.998C69.1806 265.697 69.2623 265.433 69.4256 265.206C69.589 264.976 69.8139 264.796 70.1003 264.666C70.3868 264.536 70.7135 264.471 71.0804 264.471C71.58 264.471 71.9789 264.585 72.2772 264.812C72.5778 265.037 72.7944 265.347 72.927 265.742Z" fill="#27272A"/>
<path d="M36.7188 122L39.1051 107.455H41.3778L38.9915 122H36.7188ZM30.206 118.392L30.5824 116.119H41.946L41.5696 118.392H30.206ZM31.6051 122L33.9915 107.455H36.2642L33.8778 122H31.6051ZM31.0369 113.335L31.4205 111.062H42.7841L42.4006 113.335H31.0369ZM44.2525 107.455H48.0451L52.0508 117.227H52.2212L56.2269 107.455H60.0195V122H57.0366V112.533H56.9158L53.1516 121.929H51.1204L47.3562 112.497H47.2354V122H44.2525V107.455ZM67.468 122.213C66.3459 122.213 65.38 121.986 64.5703 121.531C63.7654 121.072 63.1451 120.423 62.7095 119.585C62.2739 118.742 62.0561 117.746 62.0561 116.595C62.0561 115.473 62.2739 114.488 62.7095 113.641C63.1451 112.793 63.7583 112.133 64.549 111.659C65.3445 111.186 66.2772 110.949 67.3473 110.949C68.067 110.949 68.737 111.065 69.3572 111.297C69.9822 111.524 70.5268 111.867 70.9908 112.327C71.4595 112.786 71.8241 113.364 72.0845 114.06C72.3449 114.751 72.4751 115.561 72.4751 116.489V117.32H63.2635V115.445H69.6271C69.6271 115.009 69.5324 114.623 69.343 114.287C69.1536 113.951 68.8909 113.688 68.5547 113.499C68.2232 113.304 67.8374 113.207 67.397 113.207C66.9377 113.207 66.5305 113.314 66.1754 113.527C65.825 113.735 65.5504 114.017 65.3516 114.372C65.1527 114.723 65.0509 115.113 65.0462 115.544V117.327C65.0462 117.866 65.1456 118.333 65.3445 118.726C65.5481 119.119 65.8345 119.422 66.2038 119.635C66.5732 119.848 67.0111 119.955 67.5178 119.955C67.8539 119.955 68.1617 119.907 68.4411 119.812C68.7204 119.718 68.9595 119.576 69.1584 119.386C69.3572 119.197 69.5088 118.965 69.6129 118.69L72.4112 118.875C72.2692 119.547 71.978 120.134 71.5376 120.636C71.102 121.134 70.5386 121.522 69.8473 121.801C69.1607 122.076 68.3677 122.213 67.468 122.213ZM78.4695 122.178C77.6409 122.178 76.8904 121.964 76.218 121.538C75.5504 121.107 75.0201 120.475 74.6271 119.642C74.2389 118.804 74.0447 117.777 74.0447 116.56C74.0447 115.31 74.246 114.27 74.6484 113.442C75.0509 112.608 75.5859 111.986 76.2536 111.574C76.9259 111.157 77.6622 110.949 78.4624 110.949C79.0732 110.949 79.5821 111.053 79.9893 111.261C80.4013 111.465 80.7327 111.721 80.9837 112.028C81.2393 112.331 81.4335 112.63 81.5661 112.923H81.6584V107.455H84.6768V122H81.6939V120.253H81.5661C81.424 120.556 81.2228 120.857 80.9624 121.155C80.7067 121.448 80.3729 121.692 79.9609 121.886C79.5537 122.08 79.0566 122.178 78.4695 122.178ZM79.4283 119.77C79.916 119.77 80.3279 119.637 80.6641 119.372C81.005 119.102 81.2654 118.726 81.4453 118.243C81.63 117.76 81.7223 117.194 81.7223 116.545C81.7223 115.897 81.6323 115.333 81.4524 114.855C81.2725 114.377 81.0121 114.008 80.6712 113.747C80.3303 113.487 79.916 113.357 79.4283 113.357C78.9311 113.357 78.5121 113.491 78.1712 113.761C77.8303 114.031 77.5722 114.405 77.397 114.884C77.2218 115.362 77.1342 115.916 77.1342 116.545C77.1342 117.18 77.2218 117.741 77.397 118.229C77.5769 118.712 77.835 119.09 78.1712 119.365C78.5121 119.635 78.9311 119.77 79.4283 119.77ZM87.1644 122V111.091H90.19V122H87.1644ZM88.6843 109.685C88.2345 109.685 87.8486 109.536 87.5266 109.237C87.2094 108.934 87.0508 108.572 87.0508 108.151C87.0508 107.734 87.2094 107.376 87.5266 107.078C87.8486 106.775 88.2345 106.624 88.6843 106.624C89.1341 106.624 89.5176 106.775 89.8349 107.078C90.1568 107.376 90.3178 107.734 90.3178 108.151C90.3178 108.572 90.1568 108.934 89.8349 109.237C89.5176 109.536 89.1341 109.685 88.6843 109.685ZM95.7244 122.206C95.0284 122.206 94.4081 122.085 93.8636 121.844C93.3191 121.598 92.8883 121.235 92.571 120.757C92.2585 120.274 92.1023 119.673 92.1023 118.953C92.1023 118.347 92.2135 117.838 92.4361 117.426C92.6586 117.014 92.9616 116.683 93.3452 116.432C93.7287 116.181 94.1643 115.991 94.652 115.864C95.1444 115.736 95.6605 115.646 96.2003 115.594C96.8348 115.527 97.3461 115.466 97.7344 115.409C98.1226 115.348 98.4044 115.258 98.5795 115.139C98.7547 115.021 98.8423 114.846 98.8423 114.614V114.571C98.8423 114.121 98.7003 113.773 98.4162 113.527C98.1368 113.281 97.7391 113.158 97.223 113.158C96.6785 113.158 96.2453 113.278 95.9233 113.52C95.6013 113.757 95.3883 114.055 95.2841 114.415L92.4858 114.188C92.6278 113.525 92.9072 112.952 93.3239 112.469C93.7405 111.981 94.2779 111.607 94.9361 111.347C95.599 111.081 96.366 110.949 97.2372 110.949C97.8433 110.949 98.4233 111.02 98.9773 111.162C99.536 111.304 100.031 111.524 100.462 111.822C100.897 112.121 101.241 112.504 101.491 112.973C101.742 113.437 101.868 113.993 101.868 114.642V122H98.9986V120.487H98.9134C98.7382 120.828 98.5038 121.129 98.2102 121.389C97.9167 121.645 97.5639 121.846 97.152 121.993C96.7401 122.135 96.2642 122.206 95.7244 122.206ZM96.5909 120.118C97.036 120.118 97.429 120.03 97.7699 119.855C98.1108 119.675 98.3783 119.434 98.5724 119.131C98.7666 118.828 98.8636 118.484 98.8636 118.101V116.943C98.7689 117.005 98.6387 117.062 98.473 117.114C98.312 117.161 98.1297 117.206 97.9261 117.249C97.7225 117.286 97.5189 117.322 97.3153 117.355C97.1117 117.384 96.9271 117.41 96.7614 117.433C96.4063 117.485 96.0961 117.568 95.831 117.682C95.5658 117.795 95.3598 117.949 95.2131 118.143C95.0663 118.333 94.9929 118.57 94.9929 118.854C94.9929 119.266 95.142 119.58 95.4403 119.798C95.7434 120.011 96.1269 120.118 96.5909 120.118Z" fill="#09090B"/>
<path d="M33.054 130.727V138H32.3899V131.423H32.3473L30.6428 132.556V131.867L32.3615 130.727H33.054ZM35.2628 138V137.513L37.6385 134.843C37.9486 134.493 38.1984 134.193 38.3878 133.945C38.5772 133.696 38.7145 133.466 38.7997 133.256C38.8873 133.045 38.9311 132.826 38.9311 132.599C38.9311 132.322 38.866 132.08 38.7358 131.874C38.608 131.666 38.4316 131.504 38.2067 131.388C37.9818 131.272 37.7285 131.214 37.4467 131.214C37.1484 131.214 36.8868 131.278 36.6619 131.406C36.4394 131.533 36.2666 131.709 36.1435 131.931C36.0204 132.154 35.9588 132.409 35.9588 132.698H35.3232C35.3232 132.296 35.4155 131.939 35.6001 131.629C35.7872 131.317 36.0417 131.072 36.3636 130.894C36.688 130.717 37.0549 130.628 37.4645 130.628C37.8693 130.628 38.2292 130.715 38.544 130.891C38.8589 131.063 39.1063 131.299 39.2862 131.597C39.4661 131.896 39.5561 132.229 39.5561 132.599C39.5561 132.866 39.5088 133.125 39.4141 133.376C39.3217 133.627 39.1619 133.907 38.9347 134.214C38.7074 134.522 38.3925 134.899 37.9901 135.344L36.1861 137.357V137.403H39.7834V138H35.2628ZM41.5225 130.727H42.2896L44.9281 137.062H44.992L47.6305 130.727H48.3975V138H47.7725V132.13H47.7157L45.2619 138H44.6582L42.2044 132.13H42.1475V138H41.5225V130.727ZM53.0123 140.045V132.545H53.6266V133.586H53.7012C53.7769 133.423 53.8811 133.256 54.0137 133.085C54.1462 132.912 54.3214 132.767 54.5392 132.648C54.7594 132.53 55.0364 132.471 55.3702 132.471C55.82 132.471 56.213 132.589 56.5492 132.826C56.8877 133.06 57.1505 133.389 57.3375 133.813C57.5269 134.235 57.6216 134.726 57.6216 135.287C57.6216 135.85 57.5269 136.344 57.3375 136.768C57.1505 137.192 56.8877 137.522 56.5492 137.759C56.213 137.995 55.8224 138.114 55.3773 138.114C55.0482 138.114 54.7724 138.054 54.5499 137.936C54.3297 137.818 54.151 137.672 54.0137 137.499C53.8787 137.324 53.7746 137.154 53.7012 136.988H53.6444V140.045H53.0123ZM53.6373 135.276C53.6373 135.717 53.7024 136.107 53.8326 136.448C53.9651 136.787 54.1545 137.053 54.4007 137.247C54.6493 137.439 54.95 137.535 55.3027 137.535C55.665 137.535 55.9703 137.435 56.2189 137.237C56.4699 137.035 56.6605 136.764 56.7907 136.423C56.9232 136.082 56.9895 135.7 56.9895 135.276C56.9895 134.857 56.9244 134.48 56.7942 134.143C56.6664 133.807 56.477 133.541 56.226 133.344C55.9751 133.146 55.6673 133.046 55.3027 133.046C54.9476 133.046 54.6458 133.142 54.3972 133.334C54.1486 133.523 53.9592 133.786 53.829 134.122C53.7012 134.456 53.6373 134.841 53.6373 135.276ZM61.1284 138.114C60.6573 138.114 60.2406 137.994 59.8784 137.755C59.5185 137.516 59.2368 137.186 59.0332 136.764C58.8296 136.34 58.7278 135.852 58.7278 135.298C58.7278 134.739 58.8296 134.248 59.0332 133.824C59.2368 133.398 59.5185 133.066 59.8784 132.83C60.2406 132.59 60.6573 132.471 61.1284 132.471C61.5995 132.471 62.015 132.59 62.3748 132.83C62.7347 133.069 63.0164 133.4 63.22 133.824C63.426 134.248 63.5289 134.739 63.5289 135.298C63.5289 135.852 63.4271 136.34 63.2235 136.764C63.0199 137.186 62.737 137.516 62.3748 137.755C62.015 137.994 61.5995 138.114 61.1284 138.114ZM61.1284 137.535C61.5072 137.535 61.8279 137.433 62.0907 137.229C62.3535 137.026 62.5524 136.755 62.6873 136.416C62.8246 136.078 62.8933 135.705 62.8933 135.298C62.8933 134.89 62.8246 134.516 62.6873 134.175C62.5524 133.835 62.3535 133.561 62.0907 133.355C61.8279 133.149 61.5072 133.046 61.1284 133.046C60.752 133.046 60.4312 133.149 60.166 133.355C59.9032 133.561 59.7032 133.835 59.5659 134.175C59.4309 134.516 59.3635 134.89 59.3635 135.298C59.3635 135.705 59.4309 136.078 59.5659 136.416C59.7032 136.755 59.9032 137.026 60.166 137.229C60.4288 137.433 60.7496 137.535 61.1284 137.535ZM68.5813 133.742L68.0025 133.906C67.9457 133.742 67.8652 133.594 67.761 133.462C67.6568 133.329 67.5207 133.224 67.3526 133.146C67.1869 133.067 66.9809 133.028 66.7347 133.028C66.3654 133.028 66.0624 133.116 65.8256 133.291C65.5889 133.466 65.4705 133.692 65.4705 133.969C65.4705 134.204 65.551 134.394 65.712 134.541C65.8754 134.686 66.1263 134.8 66.4648 134.886L67.2887 135.088C67.7456 135.199 68.0877 135.376 68.315 135.617C68.5446 135.859 68.6594 136.162 68.6594 136.526C68.6594 136.834 68.5742 137.107 68.4038 137.347C68.2333 137.586 67.9954 137.774 67.69 137.911C67.387 138.046 67.0354 138.114 66.6353 138.114C66.1026 138.114 65.6635 137.994 65.3178 137.755C64.9722 137.513 64.7508 137.165 64.6538 136.711L65.261 136.562C65.3391 136.886 65.4918 137.131 65.7191 137.297C65.9487 137.463 66.2506 137.545 66.6246 137.545C67.0437 137.545 67.3787 137.452 67.6296 137.265C67.8806 137.076 68.006 136.839 68.006 136.555C68.006 136.335 67.9326 136.15 67.7859 136.001C67.6391 135.849 67.4165 135.738 67.1183 135.667L66.2269 135.454C65.7534 135.34 65.4031 135.16 65.1758 134.914C64.9485 134.668 64.8349 134.362 64.8349 133.998C64.8349 133.697 64.9165 133.433 65.0799 133.206C65.2433 132.976 65.4682 132.796 65.7546 132.666C66.0411 132.536 66.3678 132.471 66.7347 132.471C67.2343 132.471 67.6332 132.585 67.9315 132.812C68.2321 133.037 68.4487 133.347 68.5813 133.742ZM72.1919 132.545V133.096H69.589V132.545H72.1919ZM70.4022 131.239H71.0378V136.576C71.0378 136.803 71.0769 136.982 71.155 137.112C71.2331 137.24 71.3349 137.331 71.4604 137.386C71.5859 137.438 71.7196 137.464 71.8617 137.464C71.9445 137.464 72.0156 137.459 72.0748 137.45C72.1339 137.438 72.186 137.426 72.231 137.414L72.3659 137.986C72.3044 138.009 72.2286 138.031 72.1387 138.05C72.0487 138.071 71.9374 138.082 71.8049 138.082C71.5729 138.082 71.3491 138.031 71.1337 137.929C70.9206 137.827 70.7454 137.676 70.6081 137.474C70.4708 137.273 70.4022 137.023 70.4022 136.725V131.239ZM77.1946 133.742L76.6158 133.906C76.5589 133.742 76.4785 133.594 76.3743 133.462C76.2701 133.329 76.134 133.224 75.9659 133.146C75.8002 133.067 75.5942 133.028 75.348 133.028C74.9787 133.028 74.6757 133.116 74.4389 133.291C74.2022 133.466 74.0838 133.692 74.0838 133.969C74.0838 134.204 74.1643 134.394 74.3253 134.541C74.4886 134.686 74.7396 134.8 75.0781 134.886L75.902 135.088C76.3589 135.199 76.701 135.376 76.9283 135.617C77.1579 135.859 77.2727 136.162 77.2727 136.526C77.2727 136.834 77.1875 137.107 77.017 137.347C76.8466 137.586 76.6087 137.774 76.3033 137.911C76.0002 138.046 75.6487 138.114 75.2486 138.114C74.7159 138.114 74.2768 137.994 73.9311 137.755C73.5855 137.513 73.3641 137.165 73.267 136.711L73.8743 136.562C73.9524 136.886 74.1051 137.131 74.3324 137.297C74.562 137.463 74.8639 137.545 75.2379 137.545C75.657 137.545 75.992 137.452 76.2429 137.265C76.4938 137.076 76.6193 136.839 76.6193 136.555C76.6193 136.335 76.5459 136.15 76.3991 136.001C76.2524 135.849 76.0298 135.738 75.7315 135.667L74.8402 135.454C74.3667 135.34 74.0163 135.16 73.7891 134.914C73.5618 134.668 73.4482 134.362 73.4482 133.998C73.4482 133.697 73.5298 133.433 73.6932 133.206C73.8565 132.976 74.0814 132.796 74.3679 132.666C74.6544 132.536 74.9811 132.471 75.348 132.471C75.8475 132.471 76.2464 132.585 76.5447 132.812C76.8454 133.037 77.062 133.347 77.1946 133.742Z" fill="#27272A"/>
</svg>
