<svg id="visual" viewBox="0 0 900 600" width="900" height="600" xmlns="http://www.w3.org/2000/svg" xmlns:xlink="http://www.w3.org/1999/xlink" version="1.1"><rect x="0" y="0" width="900" height="600" fill="#7700c6"></rect><defs><linearGradient id="grad1_0" x1="33.3%" y1="0%" x2="100%" y2="100%"><stop offset="20%" stop-color="#f3f4f6" stop-opacity="1"></stop><stop offset="80%" stop-color="#f3f4f6" stop-opacity="1"></stop></linearGradient></defs><defs><linearGradient id="grad1_1" x1="33.3%" y1="0%" x2="100%" y2="100%"><stop offset="20%" stop-color="#f3f4f6" stop-opacity="1"></stop><stop offset="80%" stop-color="#a8b7f7" stop-opacity="1"></stop></linearGradient></defs><defs><linearGradient id="grad1_2" x1="33.3%" y1="0%" x2="100%" y2="100%"><stop offset="20%" stop-color="#7e73e9" stop-opacity="1"></stop><stop offset="80%" stop-color="#a8b7f7" stop-opacity="1"></stop></linearGradient></defs><defs><linearGradient id="grad1_3" x1="33.3%" y1="0%" x2="100%" y2="100%"><stop offset="20%" stop-color="#7e73e9" stop-opacity="1"></stop><stop offset="80%" stop-color="#7700c6" stop-opacity="1"></stop></linearGradient></defs><defs><linearGradient id="grad2_0" x1="0%" y1="0%" x2="66.7%" y2="100%"><stop offset="20%" stop-color="#f3f4f6" stop-opacity="1"></stop><stop offset="80%" stop-color="#f3f4f6" stop-opacity="1"></stop></linearGradient></defs><defs><linearGradient id="grad2_1" x1="0%" y1="0%" x2="66.7%" y2="100%"><stop offset="20%" stop-color="#a8b7f7" stop-opacity="1"></stop><stop offset="80%" stop-color="#f3f4f6" stop-opacity="1"></stop></linearGradient></defs><defs><linearGradient id="grad2_2" x1="0%" y1="0%" x2="66.7%" y2="100%"><stop offset="20%" stop-color="#a8b7f7" stop-opacity="1"></stop><stop offset="80%" stop-color="#7e73e9" stop-opacity="1"></stop></linearGradient></defs><defs><linearGradient id="grad2_3" x1="0%" y1="0%" x2="66.7%" y2="100%"><stop offset="20%" stop-color="#7700c6" stop-opacity="1"></stop><stop offset="80%" stop-color="#7e73e9" stop-opacity="1"></stop></linearGradient></defs><g transform="translate(900, 0)"><path d="M0 540.8C-32.4 495.2 -64.8 449.5 -97.7 428C-130.5 406.4 -163.8 409 -190.9 396.4C-218 383.8 -238.8 356.1 -273.1 342.4C-307.4 328.8 -355.1 329.1 -389.4 310.5C-423.6 291.9 -444.3 254.3 -446.9 215.2C-449.4 176.1 -433.8 135.4 -434.8 99.2C-435.8 63.1 -453.4 31.6 -471 0L0 0Z" fill="#774bdb"></path><path d="M0 405.6C-24.3 371.4 -48.6 337.2 -73.3 321C-97.9 304.8 -122.9 306.8 -143.2 297.3C-163.5 287.9 -179.1 267.1 -204.8 256.8C-230.5 246.6 -266.3 246.8 -292 232.9C-317.7 218.9 -333.2 190.8 -335.2 161.4C-337.1 132.1 -325.4 101.5 -326.1 74.4C-326.9 47.3 -340.1 23.7 -353.2 0L0 0Z" fill="#8f96f2"></path><path d="M0 270.4C-16.2 247.6 -32.4 224.8 -48.8 214C-65.3 203.2 -81.9 204.5 -95.5 198.2C-109 191.9 -119.4 178.1 -136.5 171.2C-153.7 164.4 -177.6 164.6 -194.7 155.2C-211.8 145.9 -222.2 127.2 -223.4 107.6C-224.7 88 -216.9 67.7 -217.4 49.6C-217.9 31.6 -226.7 15.8 -235.5 0L0 0Z" fill="#cad6f7"></path><path d="M0 135.2C-8.1 123.8 -16.2 112.4 -24.4 107C-32.6 101.6 -41 102.3 -47.7 99.1C-54.5 96 -59.7 89 -68.3 85.6C-76.8 82.2 -88.8 82.3 -97.3 77.6C-105.9 73 -111.1 63.6 -111.7 53.8C-112.4 44 -108.5 33.8 -108.7 24.8C-109 15.8 -113.4 7.9 -117.7 0L0 0Z" fill="#f3f4f6"></path></g><g transform="translate(0, 600)"><path d="M0 -517C37.2 -509.3 74.4 -501.5 111.9 -490.4C149.4 -479.3 187.2 -464.8 210.9 -437.9C234.5 -410.9 244.1 -371.6 286.8 -359.6C329.5 -347.7 405.3 -363.2 419.8 -334.8C434.4 -306.4 387.7 -234.2 403.6 -194.4C419.6 -154.6 498.1 -147.3 527.3 -120.3C556.4 -93.4 536.2 -46.7 516 0L0 0Z" fill="#774bdb"></path><path d="M0 -387.7C27.9 -381.9 55.8 -376.1 83.9 -367.8C112.1 -359.5 140.4 -348.6 158.2 -328.4C175.9 -308.2 183.1 -278.7 215.1 -269.7C247.1 -260.8 304 -272.4 314.9 -251.1C325.8 -229.8 290.8 -175.6 302.7 -145.8C314.7 -116 373.6 -110.5 395.5 -90.3C417.3 -70 402.2 -35 387 0L0 0Z" fill="#8f96f2"></path><path d="M0 -258.5C18.6 -254.6 37.2 -250.8 56 -245.2C74.7 -239.6 93.6 -232.4 105.4 -218.9C117.3 -205.5 122.1 -185.8 143.4 -179.8C164.7 -173.9 202.6 -181.6 209.9 -167.4C217.2 -153.2 193.9 -117.1 201.8 -97.2C209.8 -77.3 249.1 -73.7 263.6 -60.2C278.2 -46.7 268.1 -23.3 258 0L0 0Z" fill="#cad6f7"></path><path d="M0 -129.2C9.3 -127.3 18.6 -125.4 28 -122.6C37.4 -119.8 46.8 -116.2 52.7 -109.5C58.6 -102.7 61 -92.9 71.7 -89.9C82.4 -86.9 101.3 -90.8 105 -83.7C108.6 -76.6 96.9 -58.5 100.9 -48.6C104.9 -38.7 124.5 -36.8 131.8 -30.1C139.1 -23.3 134.1 -11.7 129 0L0 0Z" fill="#f3f4f6"></path></g></svg>