<svg id="visual" viewBox="0 0 900 600" width="900" height="600" xmlns="http://www.w3.org/2000/svg" xmlns:xlink="http://www.w3.org/1999/xlink" version="1.1"><rect x="0" y="0" width="900" height="600" fill="#7700c6"></rect><defs><linearGradient id="grad1_0" x1="33.3%" y1="0%" x2="100%" y2="100%"><stop offset="20%" stop-color="#18181b" stop-opacity="1"></stop><stop offset="80%" stop-color="#18181b" stop-opacity="1"></stop></linearGradient></defs><defs><linearGradient id="grad1_1" x1="33.3%" y1="0%" x2="100%" y2="100%"><stop offset="20%" stop-color="#18181b" stop-opacity="1"></stop><stop offset="80%" stop-color="#242356" stop-opacity="1"></stop></linearGradient></defs><defs><linearGradient id="grad1_2" x1="33.3%" y1="0%" x2="100%" y2="100%"><stop offset="20%" stop-color="#412691" stop-opacity="1"></stop><stop offset="80%" stop-color="#242356" stop-opacity="1"></stop></linearGradient></defs><defs><linearGradient id="grad1_3" x1="33.3%" y1="0%" x2="100%" y2="100%"><stop offset="20%" stop-color="#412691" stop-opacity="1"></stop><stop offset="80%" stop-color="#7700c6" stop-opacity="1"></stop></linearGradient></defs><defs><linearGradient id="grad2_0" x1="0%" y1="0%" x2="66.7%" y2="100%"><stop offset="20%" stop-color="#18181b" stop-opacity="1"></stop><stop offset="80%" stop-color="#18181b" stop-opacity="1"></stop></linearGradient></defs><defs><linearGradient id="grad2_1" x1="0%" y1="0%" x2="66.7%" y2="100%"><stop offset="20%" stop-color="#242356" stop-opacity="1"></stop><stop offset="80%" stop-color="#18181b" stop-opacity="1"></stop></linearGradient></defs><defs><linearGradient id="grad2_2" x1="0%" y1="0%" x2="66.7%" y2="100%"><stop offset="20%" stop-color="#242356" stop-opacity="1"></stop><stop offset="80%" stop-color="#412691" stop-opacity="1"></stop></linearGradient></defs><defs><linearGradient id="grad2_3" x1="0%" y1="0%" x2="66.7%" y2="100%"><stop offset="20%" stop-color="#7700c6" stop-opacity="1"></stop><stop offset="80%" stop-color="#412691" stop-opacity="1"></stop></linearGradient></defs><g transform="translate(900, 0)"><path d="M0 540.8C-38.7 492.6 -77.4 444.3 -112.1 418.2C-146.8 392.2 -177.5 388.4 -222 384.5C-266.5 380.6 -324.9 376.6 -344.4 344.4C-363.8 312.1 -344.3 251.6 -375 216.5C-405.6 181.4 -486.4 171.8 -522.4 140C-558.4 108.1 -549.6 54.1 -540.8 0L0 0Z" fill="#591fad"></path><path d="M0 405.6C-29 369.4 -58 333.2 -84.1 313.7C-110.1 294.2 -133.1 291.3 -166.5 288.4C-199.9 285.5 -243.7 282.5 -258.3 258.3C-272.9 234.1 -258.3 188.7 -281.2 162.4C-304.2 136.1 -364.8 128.9 -391.8 105C-418.8 81.1 -412.2 40.6 -405.6 0L0 0Z" fill="#302674"></path><path d="M0 270.4C-19.3 246.3 -38.7 222.1 -56 209.1C-73.4 196.1 -88.7 194.2 -111 192.3C-133.3 190.3 -162.5 188.3 -172.2 172.2C-181.9 156 -172.2 125.8 -187.5 108.3C-202.8 90.7 -243.2 85.9 -261.2 70C-279.2 54.1 -274.8 27 -270.4 0L0 0Z" fill="#1e1e38"></path><path d="M0 135.2C-9.7 123.1 -19.3 111.1 -28 104.6C-36.7 98.1 -44.4 97.1 -55.5 96.1C-66.6 95.2 -81.2 94.2 -86.1 86.1C-91 78 -86.1 62.9 -93.7 54.1C-101.4 45.4 -121.6 43 -130.6 35C-139.6 27 -137.4 13.5 -135.2 0L0 0Z" fill="#18181b"></path></g><g transform="translate(0, 600)"><path d="M0 -540.8C47.5 -529.3 95 -517.7 132.5 -494.6C170.1 -471.4 197.7 -436.6 242 -419.2C286.3 -401.8 347.2 -401.8 369.1 -369.1C391.1 -336.4 374.1 -271 399.2 -230.5C424.4 -190 491.8 -174.3 522.4 -140C553 -105.7 546.9 -52.9 540.8 0L0 0Z" fill="#591fad"></path><path d="M0 -405.6C35.6 -397 71.2 -388.3 99.4 -370.9C127.6 -353.5 148.3 -327.4 181.5 -314.4C214.7 -301.3 260.4 -301.3 276.8 -276.8C293.3 -252.3 280.5 -203.3 299.4 -172.9C318.3 -142.5 368.8 -130.7 391.8 -105C414.8 -79.3 410.2 -39.6 405.6 0L0 0Z" fill="#302674"></path><path d="M0 -270.4C23.7 -264.6 47.5 -258.9 66.3 -247.3C85 -235.7 98.9 -218.3 121 -209.6C143.1 -200.9 173.6 -200.9 184.6 -184.6C195.5 -168.2 187 -135.5 199.6 -115.3C212.2 -95 245.9 -87.1 261.2 -70C276.5 -52.9 273.5 -26.4 270.4 0L0 0Z" fill="#1e1e38"></path><path d="M0 -135.2C11.9 -132.3 23.7 -129.4 33.1 -123.6C42.5 -117.8 49.4 -109.1 60.5 -104.8C71.6 -100.4 86.8 -100.4 92.3 -92.3C97.8 -84.1 93.5 -67.8 99.8 -57.6C106.1 -47.5 122.9 -43.6 130.6 -35C138.3 -26.4 136.7 -13.2 135.2 0L0 0Z" fill="#18181b"></path></g></svg>