<svg id="visual" viewBox="0 0 900 600" width="900" height="600" xmlns="http://www.w3.org/2000/svg"
    xmlns:xlink="http://www.w3.org/1999/xlink" version="1.1">
    <rect x="0" y="0" width="900" height="600" fill="#140021"></rect>
    <path
        d="M0 356L129 356L129 365L257 365L257 306L386 306L386 330L514 330L514 316L643 316L643 260L771 260L771 348L900 348L900 376L900 601L900 601L771 601L771 601L643 601L643 601L514 601L514 601L386 601L386 601L257 601L257 601L129 601L129 601L0 601Z"
        fill="#9900ff"></path>
    <path
        d="M0 369L129 369L129 350L257 350L257 437L386 437L386 402L514 402L514 362L643 362L643 439L771 439L771 388L900 388L900 389L900 601L900 601L771 601L771 601L643 601L643 601L514 601L514 601L386 601L386 601L257 601L257 601L129 601L129 601L0 601Z"
        fill="#7700c6"></path>
    <path
        d="M0 507L129 507L129 455L257 455L257 494L386 494L386 541L514 541L514 496L643 496L643 503L771 503L771 465L900 465L900 472L900 601L900 601L771 601L771 601L643 601L643 601L514 601L514 601L386 601L386 601L257 601L257 601L129 601L129 601L0 601Z"
        fill="#560090"></path>
</svg>