<svg id="visual" viewBox="0 0 900 600" width="900" height="600" xmlns="http://www.w3.org/2000/svg" xmlns:xlink="http://www.w3.org/1999/xlink" version="1.1"><rect x="0" y="0" width="900" height="600" fill="#f3f4f6"></rect><path d="M0 291L150 291L150 324L300 324L300 312L450 312L450 340L600 340L600 316L750 316L750 324L900 324L900 288L900 601L900 601L750 601L750 601L600 601L600 601L450 601L450 601L300 601L300 601L150 601L150 601L0 601Z" fill="#9900ff"></path><path d="M0 424L150 424L150 377L300 377L300 411L450 411L450 366L600 366L600 392L750 392L750 346L900 346L900 422L900 601L900 601L750 601L750 601L600 601L600 601L450 601L450 601L300 601L300 601L150 601L150 601L0 601Z" fill="#8800e2"></path><path d="M0 462L150 462L150 398L300 398L300 472L450 472L450 463L600 463L600 411L750 411L750 456L900 456L900 471L900 601L900 601L750 601L750 601L600 601L600 601L450 601L450 601L300 601L300 601L150 601L150 601L0 601Z" fill="#7700c6"></path><path d="M0 518L150 518L150 498L300 498L300 512L450 512L450 478L600 478L600 486L750 486L750 491L900 491L900 511L900 601L900 601L750 601L750 601L600 601L600 601L450 601L450 601L300 601L300 601L150 601L150 601L0 601Z" fill="#6600ab"></path><path d="M0 524L150 524L150 538L300 538L300 557L450 557L450 513L600 513L600 527L750 527L750 558L900 558L900 549L900 601L900 601L750 601L750 601L600 601L600 601L450 601L450 601L300 601L300 601L150 601L150 601L0 601Z" fill="#560090"></path></svg>