<svg id="visual" viewBox="0 0 900 600" width="900" height="600" xmlns="http://www.w3.org/2000/svg" xmlns:xlink="http://www.w3.org/1999/xlink" version="1.1"><rect x="0" y="0" width="900" height="600" fill="#7700c6"></rect><defs><linearGradient id="grad1_0" x1="33.3%" y1="100%" x2="100%" y2="0%"><stop offset="20%" stop-color="#d4d4d8" stop-opacity="1"></stop><stop offset="80%" stop-color="#d4d4d8" stop-opacity="1"></stop></linearGradient></defs><defs><linearGradient id="grad1_1" x1="33.3%" y1="100%" x2="100%" y2="0%"><stop offset="20%" stop-color="#d4d4d8" stop-opacity="1"></stop><stop offset="80%" stop-color="#bcb9dc" stop-opacity="1"></stop></linearGradient></defs><defs><linearGradient id="grad1_2" x1="33.3%" y1="100%" x2="100%" y2="0%"><stop offset="20%" stop-color="#a79edd" stop-opacity="1"></stop><stop offset="80%" stop-color="#bcb9dc" stop-opacity="1"></stop></linearGradient></defs><defs><linearGradient id="grad1_3" x1="33.3%" y1="100%" x2="100%" y2="0%"><stop offset="20%" stop-color="#a79edd" stop-opacity="1"></stop><stop offset="80%" stop-color="#9682dc" stop-opacity="1"></stop></linearGradient></defs><defs><linearGradient id="grad1_4" x1="33.3%" y1="100%" x2="100%" y2="0%"><stop offset="20%" stop-color="#8864d8" stop-opacity="1"></stop><stop offset="80%" stop-color="#9682dc" stop-opacity="1"></stop></linearGradient></defs><defs><linearGradient id="grad1_5" x1="33.3%" y1="100%" x2="100%" y2="0%"><stop offset="20%" stop-color="#8864d8" stop-opacity="1"></stop><stop offset="80%" stop-color="#7e41d1" stop-opacity="1"></stop></linearGradient></defs><defs><linearGradient id="grad1_6" x1="33.3%" y1="100%" x2="100%" y2="0%"><stop offset="20%" stop-color="#7700c6" stop-opacity="1"></stop><stop offset="80%" stop-color="#7e41d1" stop-opacity="1"></stop></linearGradient></defs><defs><linearGradient id="grad2_0" x1="0%" y1="100%" x2="66.7%" y2="0%"><stop offset="20%" stop-color="#d4d4d8" stop-opacity="1"></stop><stop offset="80%" stop-color="#d4d4d8" stop-opacity="1"></stop></linearGradient></defs><defs><linearGradient id="grad2_1" x1="0%" y1="100%" x2="66.7%" y2="0%"><stop offset="20%" stop-color="#bcb9dc" stop-opacity="1"></stop><stop offset="80%" stop-color="#d4d4d8" stop-opacity="1"></stop></linearGradient></defs><defs><linearGradient id="grad2_2" x1="0%" y1="100%" x2="66.7%" y2="0%"><stop offset="20%" stop-color="#bcb9dc" stop-opacity="1"></stop><stop offset="80%" stop-color="#a79edd" stop-opacity="1"></stop></linearGradient></defs><defs><linearGradient id="grad2_3" x1="0%" y1="100%" x2="66.7%" y2="0%"><stop offset="20%" stop-color="#9682dc" stop-opacity="1"></stop><stop offset="80%" stop-color="#a79edd" stop-opacity="1"></stop></linearGradient></defs><defs><linearGradient id="grad2_4" x1="0%" y1="100%" x2="66.7%" y2="0%"><stop offset="20%" stop-color="#9682dc" stop-opacity="1"></stop><stop offset="80%" stop-color="#8864d8" stop-opacity="1"></stop></linearGradient></defs><defs><linearGradient id="grad2_5" x1="0%" y1="100%" x2="66.7%" y2="0%"><stop offset="20%" stop-color="#7e41d1" stop-opacity="1"></stop><stop offset="80%" stop-color="#8864d8" stop-opacity="1"></stop></linearGradient></defs><defs><linearGradient id="grad2_6" x1="0%" y1="100%" x2="66.7%" y2="0%"><stop offset="20%" stop-color="#7e41d1" stop-opacity="1"></stop><stop offset="80%" stop-color="#7700c6" stop-opacity="1"></stop></linearGradient></defs><g transform="translate(900, 600)"><path d="M-532 0C-524.6 -69.4 -517.1 -138.8 -494.3 -204.7C-471.4 -270.6 -433.2 -333 -382.4 -382.4C-331.6 -431.8 -268.3 -468.3 -202.4 -488.7C-136.6 -509.2 -68.3 -513.6 0 -518L0 0Z" fill="#7a2bcc"></path><path d="M-456 0C-449.6 -59.5 -443.2 -119 -423.7 -175.5C-404.1 -232 -371.3 -285.4 -327.8 -327.8C-284.3 -370.2 -229.9 -401.4 -173.5 -418.9C-117.1 -436.4 -58.5 -440.2 0 -444L0 0Z" fill="#8353d5"></path><path d="M-380 0C-374.7 -49.6 -369.4 -99.2 -353.1 -146.2C-336.7 -193.3 -309.4 -237.9 -273.2 -273.2C-236.9 -308.5 -191.6 -334.5 -144.6 -349.1C-97.6 -363.7 -48.8 -366.8 0 -370L0 0Z" fill="#8f73da"></path><path d="M-304 0C-299.7 -39.7 -295.5 -79.3 -282.4 -117C-269.4 -154.6 -247.6 -190.3 -218.5 -218.5C-189.5 -246.8 -153.3 -267.6 -115.7 -279.3C-78.1 -291 -39 -293.5 0 -296L0 0Z" fill="#9e90dd"></path><path d="M-228 0C-224.8 -29.8 -221.6 -59.5 -211.8 -87.7C-202 -116 -185.7 -142.7 -163.9 -163.9C-142.1 -185.1 -115 -200.7 -86.8 -209.5C-58.5 -218.2 -29.3 -220.1 0 -222L0 0Z" fill="#b1acdd"></path><path d="M-152 0C-149.9 -19.8 -147.7 -39.7 -141.2 -58.5C-134.7 -77.3 -123.8 -95.1 -109.3 -109.3C-94.8 -123.4 -76.6 -133.8 -57.8 -139.6C-39 -145.5 -19.5 -146.7 0 -148L0 0Z" fill="#c7c7da"></path><path d="M-76 0C-74.9 -9.9 -73.9 -19.8 -70.6 -29.2C-67.3 -38.7 -61.9 -47.6 -54.6 -54.6C-47.4 -61.7 -38.3 -66.9 -28.9 -69.8C-19.5 -72.7 -9.8 -73.4 0 -74L0 0Z" fill="#d4d4d8"></path></g><g transform="translate(0, 0)"><path d="M536 0C525.8 68.8 515.6 137.6 492.4 204C469.2 270.3 433.1 334.2 382.4 382.4C331.8 430.6 266.7 463.1 200.5 484.1C134.4 505.1 67.2 514.5 0 524L0 0Z" fill="#7a2bcc"></path><path d="M459.4 0C450.7 59 442 118 422.1 174.8C402.2 231.7 371.2 286.5 327.8 327.8C284.4 369.1 228.6 397 171.9 415C115.2 432.9 57.6 441 0 449.1L0 0Z" fill="#8353d5"></path><path d="M382.9 0C375.6 49.1 368.3 98.3 351.7 145.7C335.2 193.1 309.3 238.7 273.2 273.2C237 307.6 190.5 330.8 143.2 345.8C96 360.8 48 367.5 0 374.3L0 0Z" fill="#8f73da"></path><path d="M306.3 0C300.5 39.3 294.6 78.6 281.4 116.6C268.1 154.5 247.5 191 218.5 218.5C189.6 246.1 152.4 264.6 114.6 276.6C76.8 288.6 38.4 294 0 299.4L0 0Z" fill="#9e90dd"></path><path d="M229.7 0C225.3 29.5 221 59 211 87.4C201.1 115.9 185.6 143.2 163.9 163.9C142.2 184.6 114.3 198.5 85.9 207.5C57.6 216.5 28.8 220.5 0 224.6L0 0Z" fill="#b1acdd"></path><path d="M153.1 0C150.2 19.7 147.3 39.3 140.7 58.3C134.1 77.2 123.7 95.5 109.3 109.3C94.8 123 76.2 132.3 57.3 138.3C38.4 144.3 19.2 147 0 149.7L0 0Z" fill="#c7c7da"></path><path d="M76.6 0C75.1 9.8 73.7 19.7 70.3 29.1C67 38.6 61.9 47.7 54.6 54.6C47.4 61.5 38.1 66.2 28.6 69.2C19.2 72.2 9.6 73.5 0 74.9L0 0Z" fill="#d4d4d8"></path></g></svg>